<mxfile host="app.diagrams.net" modified="2022-09-27T04:04:49.675Z" agent="5.0 (Windows NT 10.0; Win64; x64) AppleWebKit/537.36 (KHTML, like Gecko) Chrome/105.0.0.0 Safari/537.36" etag="U0ugqUwvVuhKNXG44DRo" version="20.3.6" type="github">
  <diagram id="llJ7z0Gji51JeSnajiMM" name="第 1 页">
    <mxGraphModel dx="1422" dy="706" grid="0" gridSize="10" guides="1" tooltips="1" connect="1" arrows="1" fold="1" page="1" pageScale="1" pageWidth="827" pageHeight="1169" math="0" shadow="0">
      <root>
        <mxCell id="0" />
        <mxCell id="1" parent="0" />
        <mxCell id="q62LZAC1qhZ32H_XYZBD-136" value="" style="rounded=1;whiteSpace=wrap;html=1;shadow=0;glass=0;sketch=0;fontSize=12;fontColor=#222138;strokeColor=#222138;strokeWidth=0;fillColor=#F4F9FC;arcSize=3;" parent="1" vertex="1">
          <mxGeometry x="46" y="2180" width="742" height="447" as="geometry" />
        </mxCell>
        <mxCell id="q62LZAC1qhZ32H_XYZBD-12" value="" style="rounded=1;whiteSpace=wrap;html=1;shadow=0;fillColor=#EFF1F3;strokeWidth=0;dashed=1;arcSize=4;" parent="1" vertex="1">
          <mxGeometry x="79" y="99" width="492" height="323" as="geometry" />
        </mxCell>
        <mxCell id="q62LZAC1qhZ32H_XYZBD-19" style="edgeStyle=orthogonalEdgeStyle;rounded=0;orthogonalLoop=1;jettySize=auto;html=1;exitX=1;exitY=0.5;exitDx=0;exitDy=0;fontColor=#FFFFFF;strokeWidth=2;strokeColor=#696773;dashed=1;" parent="1" source="q62LZAC1qhZ32H_XYZBD-1" target="q62LZAC1qhZ32H_XYZBD-16" edge="1">
          <mxGeometry relative="1" as="geometry" />
        </mxCell>
        <mxCell id="q62LZAC1qhZ32H_XYZBD-20" style="edgeStyle=orthogonalEdgeStyle;rounded=1;orthogonalLoop=1;jettySize=auto;html=1;exitX=1;exitY=0.75;exitDx=0;exitDy=0;entryX=0;entryY=0.5;entryDx=0;entryDy=0;fontColor=#FFFFFF;strokeColor=#696773;strokeWidth=2;dashed=1;" parent="1" source="q62LZAC1qhZ32H_XYZBD-1" target="q62LZAC1qhZ32H_XYZBD-18" edge="1">
          <mxGeometry relative="1" as="geometry" />
        </mxCell>
        <mxCell id="q62LZAC1qhZ32H_XYZBD-21" style="edgeStyle=orthogonalEdgeStyle;rounded=1;orthogonalLoop=1;jettySize=auto;html=1;exitX=1;exitY=0.25;exitDx=0;exitDy=0;entryX=0;entryY=0.5;entryDx=0;entryDy=0;fontColor=#FFFFFF;strokeColor=#696773;strokeWidth=2;dashed=1;" parent="1" source="q62LZAC1qhZ32H_XYZBD-1" target="q62LZAC1qhZ32H_XYZBD-15" edge="1">
          <mxGeometry relative="1" as="geometry" />
        </mxCell>
        <mxCell id="q62LZAC1qhZ32H_XYZBD-1" value="" style="rounded=1;whiteSpace=wrap;html=1;fillColor=#79D9CE;strokeColor=#79D9CE;shadow=1;" parent="1" vertex="1">
          <mxGeometry x="110" y="225" width="120" height="60" as="geometry" />
        </mxCell>
        <mxCell id="q62LZAC1qhZ32H_XYZBD-2" value="&lt;font color=&quot;#ffffff&quot;&gt;77AAC2&lt;/font&gt;" style="whiteSpace=wrap;html=1;rounded=1;fillColor=#77AAC2;shadow=1;strokeWidth=0;strokeColor=#77AAC2;" parent="1" vertex="1">
          <mxGeometry x="624" y="30" width="120" height="60" as="geometry" />
        </mxCell>
        <mxCell id="q62LZAC1qhZ32H_XYZBD-4" value="&lt;font color=&quot;#ffffff&quot;&gt;79D9CE&lt;/font&gt;" style="whiteSpace=wrap;html=1;rounded=1;fillColor=#79D9CE;strokeColor=#79D9CE;strokeWidth=0;shadow=1;" parent="1" vertex="1">
          <mxGeometry x="624" y="117" width="120" height="60" as="geometry" />
        </mxCell>
        <mxCell id="q62LZAC1qhZ32H_XYZBD-6" value="&lt;font color=&quot;#ffffff&quot;&gt;FCD765&lt;/font&gt;" style="whiteSpace=wrap;html=1;rounded=1;fillColor=#FCD765;strokeColor=#FCD765;shadow=1;" parent="1" vertex="1">
          <mxGeometry x="624" y="201" width="120" height="60" as="geometry" />
        </mxCell>
        <mxCell id="q62LZAC1qhZ32H_XYZBD-7" value="F19A97" style="whiteSpace=wrap;html=1;rounded=1;fillColor=#F19A97;strokeColor=#F19A97;shadow=1;glass=0;sketch=0;" parent="1" vertex="1">
          <mxGeometry x="624" y="288" width="120" height="60" as="geometry" />
        </mxCell>
        <mxCell id="q62LZAC1qhZ32H_XYZBD-8" value="&lt;font color=&quot;#ffffff&quot;&gt;F19A97&lt;/font&gt;" style="whiteSpace=wrap;html=1;rounded=1;fillColor=#696773;strokeColor=#696773;shadow=1;" parent="1" vertex="1">
          <mxGeometry x="624" y="383" width="120" height="60" as="geometry" />
        </mxCell>
        <mxCell id="q62LZAC1qhZ32H_XYZBD-9" value="EFF1F3" style="whiteSpace=wrap;html=1;rounded=1;fillColor=#EFF1F3;strokeColor=#EFF1F3;shadow=1;" parent="1" vertex="1">
          <mxGeometry x="624" y="470" width="120" height="60" as="geometry" />
        </mxCell>
        <mxCell id="q62LZAC1qhZ32H_XYZBD-15" value="&lt;font color=&quot;#ffffff&quot;&gt;2F6FED&lt;/font&gt;" style="whiteSpace=wrap;html=1;rounded=1;fillColor=#2F6FED;strokeColor=#F19A97;shadow=1;glass=0;sketch=0;strokeWidth=0;" parent="1" vertex="1">
          <mxGeometry x="394" y="128.5" width="120" height="60" as="geometry" />
        </mxCell>
        <mxCell id="q62LZAC1qhZ32H_XYZBD-16" value="" style="whiteSpace=wrap;html=1;fillColor=#F19A97;strokeColor=#F19A97;rounded=1;shadow=1;glass=0;sketch=0;" parent="1" vertex="1">
          <mxGeometry x="394" y="225" width="120" height="60" as="geometry" />
        </mxCell>
        <mxCell id="q62LZAC1qhZ32H_XYZBD-18" value="" style="whiteSpace=wrap;html=1;fillColor=#F19A97;strokeColor=#F19A97;rounded=1;shadow=1;glass=0;sketch=0;" parent="1" vertex="1">
          <mxGeometry x="394" y="327.5" width="120" height="60" as="geometry" />
        </mxCell>
        <mxCell id="q62LZAC1qhZ32H_XYZBD-24" value="Text" style="text;html=1;align=center;verticalAlign=middle;resizable=0;points=[];autosize=1;strokeColor=none;fillColor=none;fontColor=#FFFFFF;" parent="1" vertex="1">
          <mxGeometry x="488" y="558" width="40" height="20" as="geometry" />
        </mxCell>
        <mxCell id="q62LZAC1qhZ32H_XYZBD-25" value="" style="rounded=1;whiteSpace=wrap;html=1;shadow=0;fillColor=#F4F1DE;strokeWidth=0;dashed=1;arcSize=6;" parent="1" vertex="1">
          <mxGeometry x="85" y="695" width="492" height="323" as="geometry" />
        </mxCell>
        <mxCell id="q62LZAC1qhZ32H_XYZBD-26" style="edgeStyle=orthogonalEdgeStyle;rounded=0;orthogonalLoop=1;jettySize=auto;html=1;exitX=1;exitY=0.5;exitDx=0;exitDy=0;fontColor=#FFFFFF;strokeWidth=2;strokeColor=#696773;dashed=1;" parent="1" source="q62LZAC1qhZ32H_XYZBD-29" target="q62LZAC1qhZ32H_XYZBD-37" edge="1">
          <mxGeometry relative="1" as="geometry" />
        </mxCell>
        <mxCell id="q62LZAC1qhZ32H_XYZBD-27" style="edgeStyle=orthogonalEdgeStyle;rounded=1;orthogonalLoop=1;jettySize=auto;html=1;exitX=1;exitY=0.75;exitDx=0;exitDy=0;entryX=0;entryY=0.5;entryDx=0;entryDy=0;fontColor=#FFFFFF;strokeColor=#696773;strokeWidth=2;dashed=1;" parent="1" source="q62LZAC1qhZ32H_XYZBD-29" target="q62LZAC1qhZ32H_XYZBD-38" edge="1">
          <mxGeometry relative="1" as="geometry" />
        </mxCell>
        <mxCell id="q62LZAC1qhZ32H_XYZBD-28" style="edgeStyle=orthogonalEdgeStyle;rounded=1;orthogonalLoop=1;jettySize=auto;html=1;exitX=1;exitY=0.25;exitDx=0;exitDy=0;entryX=0;entryY=0.5;entryDx=0;entryDy=0;fontColor=#FFFFFF;strokeColor=#696773;strokeWidth=2;dashed=1;" parent="1" source="q62LZAC1qhZ32H_XYZBD-29" target="q62LZAC1qhZ32H_XYZBD-36" edge="1">
          <mxGeometry relative="1" as="geometry" />
        </mxCell>
        <mxCell id="q62LZAC1qhZ32H_XYZBD-29" value="" style="rounded=1;whiteSpace=wrap;html=1;fillColor=#79D9CE;strokeColor=#79D9CE;shadow=1;" parent="1" vertex="1">
          <mxGeometry x="116" y="821" width="120" height="60" as="geometry" />
        </mxCell>
        <mxCell id="q62LZAC1qhZ32H_XYZBD-30" value="&lt;font color=&quot;#ffffff&quot;&gt;3D405B&lt;/font&gt;" style="whiteSpace=wrap;html=1;rounded=1;fillColor=#3D405B;shadow=1;strokeWidth=0;strokeColor=#77AAC2;" parent="1" vertex="1">
          <mxGeometry x="630" y="626" width="120" height="60" as="geometry" />
        </mxCell>
        <mxCell id="q62LZAC1qhZ32H_XYZBD-31" value="&lt;font color=&quot;#ffffff&quot;&gt;81B29A&lt;/font&gt;" style="whiteSpace=wrap;html=1;rounded=1;fillColor=#81B29A;strokeColor=#79D9CE;strokeWidth=0;shadow=1;" parent="1" vertex="1">
          <mxGeometry x="630" y="713" width="120" height="60" as="geometry" />
        </mxCell>
        <mxCell id="q62LZAC1qhZ32H_XYZBD-32" value="&lt;font color=&quot;#ffffff&quot;&gt;F2CC8F&lt;/font&gt;" style="whiteSpace=wrap;html=1;rounded=1;fillColor=#F2CC8F;strokeColor=#FCD765;shadow=1;" parent="1" vertex="1">
          <mxGeometry x="630" y="797" width="120" height="60" as="geometry" />
        </mxCell>
        <mxCell id="q62LZAC1qhZ32H_XYZBD-33" value="&lt;font color=&quot;#ffffff&quot;&gt;E07A5F&lt;/font&gt;" style="whiteSpace=wrap;html=1;rounded=1;fillColor=#E07A5F;strokeColor=#F19A97;shadow=1;glass=0;sketch=0;" parent="1" vertex="1">
          <mxGeometry x="630" y="884" width="120" height="60" as="geometry" />
        </mxCell>
        <mxCell id="q62LZAC1qhZ32H_XYZBD-34" value="&lt;font color=&quot;#ffffff&quot;&gt;696773&lt;/font&gt;" style="whiteSpace=wrap;html=1;rounded=1;fillColor=#696773;strokeColor=#696773;shadow=1;" parent="1" vertex="1">
          <mxGeometry x="630" y="979" width="120" height="60" as="geometry" />
        </mxCell>
        <mxCell id="q62LZAC1qhZ32H_XYZBD-35" value="F4F1DE" style="whiteSpace=wrap;html=1;rounded=1;fillColor=#F4F1DE;strokeColor=#EFF1F3;shadow=1;" parent="1" vertex="1">
          <mxGeometry x="630" y="1066" width="120" height="60" as="geometry" />
        </mxCell>
        <mxCell id="q62LZAC1qhZ32H_XYZBD-36" value="&lt;font color=&quot;#ffffff&quot;&gt;2F6FED&lt;/font&gt;" style="whiteSpace=wrap;html=1;rounded=1;fillColor=#2F6FED;strokeColor=#F19A97;shadow=1;glass=0;sketch=0;strokeWidth=0;" parent="1" vertex="1">
          <mxGeometry x="400" y="724.5" width="120" height="60" as="geometry" />
        </mxCell>
        <mxCell id="q62LZAC1qhZ32H_XYZBD-37" value="" style="whiteSpace=wrap;html=1;fillColor=#F19A97;strokeColor=#F19A97;rounded=1;shadow=1;glass=0;sketch=0;" parent="1" vertex="1">
          <mxGeometry x="400" y="821" width="120" height="60" as="geometry" />
        </mxCell>
        <mxCell id="q62LZAC1qhZ32H_XYZBD-38" value="" style="whiteSpace=wrap;html=1;fillColor=#F19A97;strokeColor=#F19A97;rounded=1;shadow=1;glass=0;sketch=0;" parent="1" vertex="1">
          <mxGeometry x="400" y="923.5" width="120" height="60" as="geometry" />
        </mxCell>
        <mxCell id="q62LZAC1qhZ32H_XYZBD-39" value="" style="rounded=1;whiteSpace=wrap;html=1;shadow=0;fillColor=#0B1922;strokeWidth=0;dashed=1;arcSize=6;" parent="1" vertex="1">
          <mxGeometry x="876" y="657" width="492" height="323" as="geometry" />
        </mxCell>
        <mxCell id="q62LZAC1qhZ32H_XYZBD-40" style="edgeStyle=orthogonalEdgeStyle;rounded=0;orthogonalLoop=1;jettySize=auto;html=1;exitX=1;exitY=0.5;exitDx=0;exitDy=0;fontColor=#FFFFFF;strokeWidth=2;strokeColor=#696773;dashed=1;" parent="1" source="q62LZAC1qhZ32H_XYZBD-43" target="q62LZAC1qhZ32H_XYZBD-51" edge="1">
          <mxGeometry relative="1" as="geometry" />
        </mxCell>
        <mxCell id="q62LZAC1qhZ32H_XYZBD-41" style="edgeStyle=orthogonalEdgeStyle;rounded=1;orthogonalLoop=1;jettySize=auto;html=1;exitX=1;exitY=0.75;exitDx=0;exitDy=0;entryX=0;entryY=0.5;entryDx=0;entryDy=0;fontColor=#FFFFFF;strokeColor=#696773;strokeWidth=2;dashed=1;" parent="1" source="q62LZAC1qhZ32H_XYZBD-43" target="q62LZAC1qhZ32H_XYZBD-52" edge="1">
          <mxGeometry relative="1" as="geometry" />
        </mxCell>
        <mxCell id="q62LZAC1qhZ32H_XYZBD-42" style="edgeStyle=orthogonalEdgeStyle;rounded=1;orthogonalLoop=1;jettySize=auto;html=1;exitX=1;exitY=0.25;exitDx=0;exitDy=0;entryX=0;entryY=0.5;entryDx=0;entryDy=0;fontColor=#FFFFFF;strokeColor=#696773;strokeWidth=2;dashed=1;" parent="1" source="q62LZAC1qhZ32H_XYZBD-43" target="q62LZAC1qhZ32H_XYZBD-50" edge="1">
          <mxGeometry relative="1" as="geometry" />
        </mxCell>
        <mxCell id="q62LZAC1qhZ32H_XYZBD-43" value="" style="rounded=1;whiteSpace=wrap;html=1;fillColor=#79D9CE;strokeColor=#79D9CE;shadow=1;" parent="1" vertex="1">
          <mxGeometry x="899" y="792" width="120" height="60" as="geometry" />
        </mxCell>
        <mxCell id="q62LZAC1qhZ32H_XYZBD-44" value="&lt;font color=&quot;#ffffff&quot;&gt;0283C0&lt;/font&gt;" style="whiteSpace=wrap;html=1;rounded=1;fillColor=#0283C0;shadow=1;strokeWidth=0;strokeColor=#77AAC2;" parent="1" vertex="1">
          <mxGeometry x="1413" y="597" width="120" height="60" as="geometry" />
        </mxCell>
        <mxCell id="q62LZAC1qhZ32H_XYZBD-45" value="&lt;font color=&quot;#ffffff&quot;&gt;04A789&lt;/font&gt;" style="whiteSpace=wrap;html=1;rounded=1;fillColor=#04A789;strokeColor=#79D9CE;strokeWidth=0;shadow=1;" parent="1" vertex="1">
          <mxGeometry x="1413" y="684" width="120" height="60" as="geometry" />
        </mxCell>
        <mxCell id="q62LZAC1qhZ32H_XYZBD-46" value="FCD701" style="whiteSpace=wrap;html=1;rounded=1;fillColor=#FCD701;strokeColor=#FCD765;shadow=1;" parent="1" vertex="1">
          <mxGeometry x="1413" y="768" width="120" height="60" as="geometry" />
        </mxCell>
        <mxCell id="q62LZAC1qhZ32H_XYZBD-47" value="&lt;font color=&quot;#ffffff&quot;&gt;C8167E&lt;/font&gt;" style="whiteSpace=wrap;html=1;rounded=1;fillColor=#C8167E;strokeColor=#F19A97;shadow=1;glass=0;sketch=0;" parent="1" vertex="1">
          <mxGeometry x="1413" y="855" width="120" height="60" as="geometry" />
        </mxCell>
        <mxCell id="q62LZAC1qhZ32H_XYZBD-48" value="E7E8E9" style="whiteSpace=wrap;html=1;rounded=1;fillColor=#E7E8E9;strokeColor=#E7E8E9;shadow=1;strokeWidth=0;" parent="1" vertex="1">
          <mxGeometry x="1413" y="950" width="120" height="60" as="geometry" />
        </mxCell>
        <mxCell id="q62LZAC1qhZ32H_XYZBD-49" value="&lt;font color=&quot;#eff1f3&quot;&gt;0B1922&lt;/font&gt;" style="whiteSpace=wrap;html=1;rounded=1;fillColor=#0B1922;strokeColor=#0B1922;shadow=1;" parent="1" vertex="1">
          <mxGeometry x="1413" y="1037" width="120" height="60" as="geometry" />
        </mxCell>
        <mxCell id="q62LZAC1qhZ32H_XYZBD-50" value="&lt;font color=&quot;#ffffff&quot;&gt;2F6FED&lt;/font&gt;" style="whiteSpace=wrap;html=1;rounded=1;fillColor=#04A789;strokeColor=#F19A97;shadow=1;glass=0;sketch=0;strokeWidth=0;" parent="1" vertex="1">
          <mxGeometry x="1183" y="695.5" width="120" height="60" as="geometry" />
        </mxCell>
        <mxCell id="q62LZAC1qhZ32H_XYZBD-51" value="0283C0" style="whiteSpace=wrap;html=1;fillColor=#0283C0;strokeColor=#F19A97;rounded=1;shadow=1;glass=0;sketch=0;fontColor=#FFFFFF;strokeWidth=0;" parent="1" vertex="1">
          <mxGeometry x="1183" y="792" width="120" height="60" as="geometry" />
        </mxCell>
        <mxCell id="q62LZAC1qhZ32H_XYZBD-52" value="C8167E" style="whiteSpace=wrap;html=1;fillColor=#C8167E;strokeColor=#F19A97;rounded=1;shadow=1;glass=0;sketch=0;fontColor=#FFFFFF;strokeWidth=0;" parent="1" vertex="1">
          <mxGeometry x="1183" y="894.5" width="120" height="60" as="geometry" />
        </mxCell>
        <mxCell id="q62LZAC1qhZ32H_XYZBD-53" value="" style="rounded=1;whiteSpace=wrap;html=1;shadow=0;fillColor=#EFF1F3;strokeWidth=0;dashed=1;arcSize=4;" parent="1" vertex="1">
          <mxGeometry x="880.5" y="110" width="492" height="323" as="geometry" />
        </mxCell>
        <mxCell id="q62LZAC1qhZ32H_XYZBD-54" style="edgeStyle=orthogonalEdgeStyle;rounded=0;orthogonalLoop=1;jettySize=auto;html=1;exitX=1;exitY=0.5;exitDx=0;exitDy=0;fontColor=#FFFFFF;strokeWidth=2;strokeColor=#696773;dashed=1;" parent="1" source="q62LZAC1qhZ32H_XYZBD-57" target="q62LZAC1qhZ32H_XYZBD-65" edge="1">
          <mxGeometry relative="1" as="geometry" />
        </mxCell>
        <mxCell id="q62LZAC1qhZ32H_XYZBD-55" style="edgeStyle=orthogonalEdgeStyle;rounded=1;orthogonalLoop=1;jettySize=auto;html=1;exitX=1;exitY=0.75;exitDx=0;exitDy=0;entryX=0;entryY=0.5;entryDx=0;entryDy=0;fontColor=#FFFFFF;strokeColor=#696773;strokeWidth=2;dashed=1;" parent="1" source="q62LZAC1qhZ32H_XYZBD-57" target="q62LZAC1qhZ32H_XYZBD-66" edge="1">
          <mxGeometry relative="1" as="geometry" />
        </mxCell>
        <mxCell id="q62LZAC1qhZ32H_XYZBD-56" style="edgeStyle=orthogonalEdgeStyle;rounded=1;orthogonalLoop=1;jettySize=auto;html=1;exitX=1;exitY=0.25;exitDx=0;exitDy=0;entryX=0;entryY=0.5;entryDx=0;entryDy=0;fontColor=#FFFFFF;strokeColor=#696773;strokeWidth=2;dashed=1;" parent="1" source="q62LZAC1qhZ32H_XYZBD-57" target="q62LZAC1qhZ32H_XYZBD-64" edge="1">
          <mxGeometry relative="1" as="geometry" />
        </mxCell>
        <mxCell id="q62LZAC1qhZ32H_XYZBD-57" value="" style="rounded=1;whiteSpace=wrap;html=1;fillColor=#79D9CE;strokeColor=#79D9CE;shadow=1;" parent="1" vertex="1">
          <mxGeometry x="911.5" y="236" width="120" height="60" as="geometry" />
        </mxCell>
        <mxCell id="q62LZAC1qhZ32H_XYZBD-58" value="&lt;font color=&quot;#ffffff&quot;&gt;95E1D3&lt;/font&gt;" style="whiteSpace=wrap;html=1;rounded=1;fillColor=#95e1d3;shadow=1;strokeWidth=0;strokeColor=#77AAC2;" parent="1" vertex="1">
          <mxGeometry x="1425.5" y="41" width="120" height="60" as="geometry" />
        </mxCell>
        <mxCell id="q62LZAC1qhZ32H_XYZBD-59" value="EAFFD0" style="whiteSpace=wrap;html=1;rounded=1;fillColor=#EAFFD0;strokeColor=#000000;strokeWidth=0;shadow=1;" parent="1" vertex="1">
          <mxGeometry x="1425.5" y="128" width="120" height="60" as="geometry" />
        </mxCell>
        <mxCell id="q62LZAC1qhZ32H_XYZBD-60" value="FCE38A" style="whiteSpace=wrap;html=1;rounded=1;fillColor=#FCE38A;strokeColor=#FCD765;shadow=1;" parent="1" vertex="1">
          <mxGeometry x="1425.5" y="212" width="120" height="60" as="geometry" />
        </mxCell>
        <mxCell id="q62LZAC1qhZ32H_XYZBD-61" value="&lt;font color=&quot;#ffffff&quot;&gt;F38181&lt;/font&gt;" style="whiteSpace=wrap;html=1;rounded=1;fillColor=#F38181;strokeColor=#F19A97;shadow=1;glass=0;sketch=0;" parent="1" vertex="1">
          <mxGeometry x="1425.5" y="299" width="120" height="60" as="geometry" />
        </mxCell>
        <mxCell id="q62LZAC1qhZ32H_XYZBD-62" value="&lt;font color=&quot;#ffffff&quot;&gt;696773&lt;/font&gt;" style="whiteSpace=wrap;html=1;rounded=1;fillColor=#696773;strokeColor=#696773;shadow=1;" parent="1" vertex="1">
          <mxGeometry x="1425.5" y="394" width="120" height="60" as="geometry" />
        </mxCell>
        <mxCell id="q62LZAC1qhZ32H_XYZBD-63" value="EFF1F3" style="whiteSpace=wrap;html=1;rounded=1;fillColor=#EFF1F3;strokeColor=#EFF1F3;shadow=1;" parent="1" vertex="1">
          <mxGeometry x="1425.5" y="481" width="120" height="60" as="geometry" />
        </mxCell>
        <mxCell id="q62LZAC1qhZ32H_XYZBD-64" value="&lt;font color=&quot;#ffffff&quot;&gt;2F6FED&lt;/font&gt;" style="whiteSpace=wrap;html=1;rounded=1;fillColor=#2F6FED;strokeColor=#F19A97;shadow=1;glass=0;sketch=0;strokeWidth=0;" parent="1" vertex="1">
          <mxGeometry x="1195.5" y="139.5" width="120" height="60" as="geometry" />
        </mxCell>
        <mxCell id="q62LZAC1qhZ32H_XYZBD-65" value="" style="whiteSpace=wrap;html=1;fillColor=#F19A97;strokeColor=#F19A97;rounded=1;shadow=1;glass=0;sketch=0;" parent="1" vertex="1">
          <mxGeometry x="1195.5" y="236" width="120" height="60" as="geometry" />
        </mxCell>
        <mxCell id="q62LZAC1qhZ32H_XYZBD-66" value="" style="whiteSpace=wrap;html=1;fillColor=#F19A97;strokeColor=#F19A97;rounded=1;shadow=1;glass=0;sketch=0;" parent="1" vertex="1">
          <mxGeometry x="1195.5" y="338.5" width="120" height="60" as="geometry" />
        </mxCell>
        <mxCell id="q62LZAC1qhZ32H_XYZBD-67" value="" style="rounded=1;whiteSpace=wrap;html=1;shadow=1;glass=0;dashed=1;sketch=0;fontColor=#FFFFFF;strokeColor=#0B1922;strokeWidth=0;fillColor=#5F5D72;arcSize=5;" parent="1" vertex="1">
          <mxGeometry x="906.5" y="1213" width="466" height="272" as="geometry" />
        </mxCell>
        <mxCell id="q62LZAC1qhZ32H_XYZBD-70" value="" style="rounded=1;orthogonalLoop=1;jettySize=auto;html=1;fontColor=#FFFFFF;strokeColor=#EFF1F3;strokeWidth=2;edgeStyle=orthogonalEdgeStyle;" parent="1" source="q62LZAC1qhZ32H_XYZBD-68" target="q62LZAC1qhZ32H_XYZBD-69" edge="1">
          <mxGeometry relative="1" as="geometry" />
        </mxCell>
        <mxCell id="q62LZAC1qhZ32H_XYZBD-72" value="" style="edgeStyle=orthogonalEdgeStyle;rounded=1;orthogonalLoop=1;jettySize=auto;html=1;fontColor=#FFFFFF;strokeColor=#EFF1F3;strokeWidth=2;" parent="1" source="q62LZAC1qhZ32H_XYZBD-68" target="q62LZAC1qhZ32H_XYZBD-71" edge="1">
          <mxGeometry relative="1" as="geometry" />
        </mxCell>
        <mxCell id="q62LZAC1qhZ32H_XYZBD-68" value="&lt;b&gt;&lt;font style=&quot;font-size: 17px;&quot;&gt;Node 1&lt;/font&gt;&lt;/b&gt;" style="rounded=1;whiteSpace=wrap;html=1;shadow=1;glass=0;dashed=1;sketch=0;fontColor=#FFFFFF;strokeColor=#0B1922;strokeWidth=0;fillColor=#222138;" parent="1" vertex="1">
          <mxGeometry x="1079.5" y="1260" width="120" height="60" as="geometry" />
        </mxCell>
        <mxCell id="q62LZAC1qhZ32H_XYZBD-69" value="&lt;b&gt;&lt;font style=&quot;font-size: 17px;&quot;&gt;Node 2&lt;/font&gt;&lt;/b&gt;" style="whiteSpace=wrap;html=1;fillColor=#222138;strokeColor=#0B1922;fontColor=#FFFFFF;rounded=1;shadow=1;glass=0;dashed=1;sketch=0;strokeWidth=0;" parent="1" vertex="1">
          <mxGeometry x="973" y="1367" width="120" height="60" as="geometry" />
        </mxCell>
        <mxCell id="q62LZAC1qhZ32H_XYZBD-71" value="&lt;b&gt;&lt;font style=&quot;font-size: 17px;&quot;&gt;Node 3&lt;/font&gt;&lt;/b&gt;" style="whiteSpace=wrap;html=1;fillColor=#222138;strokeColor=#0B1922;fontColor=#FFFFFF;rounded=1;shadow=1;glass=0;dashed=1;sketch=0;strokeWidth=0;" parent="1" vertex="1">
          <mxGeometry x="1183" y="1367" width="120" height="60" as="geometry" />
        </mxCell>
        <mxCell id="q62LZAC1qhZ32H_XYZBD-73" value="" style="rounded=1;whiteSpace=wrap;html=1;shadow=1;glass=0;sketch=0;fontSize=17;fontColor=#FFFFFF;strokeColor=#222138;strokeWidth=1;fillColor=#FFFFFF;" parent="1" vertex="1">
          <mxGeometry x="57" y="1609" width="721" height="81" as="geometry" />
        </mxCell>
        <mxCell id="q62LZAC1qhZ32H_XYZBD-74" value="Access" style="rounded=1;whiteSpace=wrap;html=1;shadow=1;glass=0;dashed=1;sketch=0;fontSize=17;fontColor=#FFFFFF;strokeColor=#0B1922;strokeWidth=0;fillColor=#0089BE;fontStyle=2" parent="1" vertex="1">
          <mxGeometry x="134" y="1626.75" width="90" height="45.5" as="geometry" />
        </mxCell>
        <mxCell id="q62LZAC1qhZ32H_XYZBD-75" value="&lt;font color=&quot;#222138&quot;&gt;接入层&lt;/font&gt;" style="text;html=1;strokeColor=none;fillColor=none;align=center;verticalAlign=middle;whiteSpace=wrap;rounded=0;shadow=1;glass=0;sketch=0;fontSize=17;fontColor=#FFFFFF;" parent="1" vertex="1">
          <mxGeometry x="61" y="1631.5" width="61" height="36" as="geometry" />
        </mxCell>
        <mxCell id="q62LZAC1qhZ32H_XYZBD-76" value="Access" style="rounded=1;whiteSpace=wrap;html=1;shadow=1;glass=0;dashed=1;sketch=0;fontSize=17;fontColor=#FFFFFF;strokeColor=#0B1922;strokeWidth=0;fillColor=#0089BE;fontStyle=2" parent="1" vertex="1">
          <mxGeometry x="304" y="1626.75" width="90" height="45.5" as="geometry" />
        </mxCell>
        <mxCell id="q62LZAC1qhZ32H_XYZBD-78" value="Access" style="rounded=1;whiteSpace=wrap;html=1;shadow=1;glass=0;dashed=1;sketch=0;fontSize=17;fontColor=#FFFFFF;strokeColor=#0B1922;strokeWidth=0;fillColor=#0089BE;fontStyle=2" parent="1" vertex="1">
          <mxGeometry x="474" y="1626.75" width="90" height="45.5" as="geometry" />
        </mxCell>
        <mxCell id="q62LZAC1qhZ32H_XYZBD-80" value="Access" style="rounded=1;whiteSpace=wrap;html=1;shadow=1;glass=0;dashed=1;sketch=0;fontSize=17;fontColor=#FFFFFF;strokeColor=#0B1922;strokeWidth=0;fillColor=#0089BE;fontStyle=2" parent="1" vertex="1">
          <mxGeometry x="644" y="1626.75" width="90" height="45.5" as="geometry" />
        </mxCell>
        <mxCell id="q62LZAC1qhZ32H_XYZBD-82" value="" style="rounded=1;whiteSpace=wrap;html=1;shadow=0;glass=0;sketch=0;fontSize=17;fontColor=#FFFFFF;strokeColor=#222138;strokeWidth=1;fillColor=#FFFFFF;arcSize=5;" parent="1" vertex="1">
          <mxGeometry x="56" y="1740" width="722" height="340" as="geometry" />
        </mxCell>
        <mxCell id="q62LZAC1qhZ32H_XYZBD-83" value="" style="rounded=1;whiteSpace=wrap;html=1;shadow=0;glass=0;sketch=0;fontSize=17;fontColor=#FFFFFF;strokeColor=#222138;strokeWidth=1;fillColor=#FFFFFF;dashed=1;" parent="1" vertex="1">
          <mxGeometry x="67" y="1771" width="156" height="268" as="geometry" />
        </mxCell>
        <mxCell id="q62LZAC1qhZ32H_XYZBD-123" style="rounded=0;orthogonalLoop=1;jettySize=auto;html=1;exitX=0.12;exitY=0.023;exitDx=0;exitDy=0;fontSize=12;fontColor=#222138;strokeColor=#222138;strokeWidth=1;endArrow=none;endFill=0;startArrow=classic;startFill=1;entryX=0.344;entryY=1.014;entryDx=0;entryDy=0;entryPerimeter=0;exitPerimeter=0;dashed=1;" parent="1" source="q62LZAC1qhZ32H_XYZBD-84" target="q62LZAC1qhZ32H_XYZBD-73" edge="1">
          <mxGeometry relative="1" as="geometry">
            <mxPoint x="348.3333333333335" y="1694.5" as="targetPoint" />
          </mxGeometry>
        </mxCell>
        <mxCell id="q62LZAC1qhZ32H_XYZBD-124" style="edgeStyle=none;rounded=0;orthogonalLoop=1;jettySize=auto;html=1;exitX=0.5;exitY=0;exitDx=0;exitDy=0;entryX=0.52;entryY=1.014;entryDx=0;entryDy=0;entryPerimeter=0;fontSize=12;fontColor=#222138;strokeColor=#222138;strokeWidth=1;endArrow=none;endFill=0;startArrow=classic;startFill=1;dashed=1;" parent="1" source="q62LZAC1qhZ32H_XYZBD-84" target="q62LZAC1qhZ32H_XYZBD-73" edge="1">
          <mxGeometry relative="1" as="geometry" />
        </mxCell>
        <mxCell id="q62LZAC1qhZ32H_XYZBD-84" value="" style="rounded=1;whiteSpace=wrap;html=1;shadow=0;glass=0;sketch=0;fontSize=17;fontColor=#FFFFFF;strokeColor=#222138;strokeWidth=1;fillColor=#FFFFFF;dashed=1;" parent="1" vertex="1">
          <mxGeometry x="265" y="1782" width="333" height="72" as="geometry" />
        </mxCell>
        <mxCell id="q62LZAC1qhZ32H_XYZBD-125" style="edgeStyle=none;rounded=0;orthogonalLoop=1;jettySize=auto;html=1;exitX=0.75;exitY=0;exitDx=0;exitDy=0;fontSize=12;fontColor=#222138;strokeColor=#A9A9A9;strokeWidth=2;dashed=1;endArrow=none;endFill=0;startArrow=classic;startFill=1;" parent="1" source="q62LZAC1qhZ32H_XYZBD-85" edge="1">
          <mxGeometry relative="1" as="geometry">
            <mxPoint x="512" y="1692" as="targetPoint" />
          </mxGeometry>
        </mxCell>
        <mxCell id="q62LZAC1qhZ32H_XYZBD-85" value="" style="rounded=1;whiteSpace=wrap;html=1;shadow=0;glass=0;sketch=0;fontSize=17;fontColor=#FFFFFF;strokeColor=#222138;strokeWidth=1;fillColor=#FFFFFF;dashed=1;" parent="1" vertex="1">
          <mxGeometry x="253" y="1899" width="345" height="140" as="geometry" />
        </mxCell>
        <mxCell id="q62LZAC1qhZ32H_XYZBD-88" value="Access" style="rounded=1;whiteSpace=wrap;html=1;shadow=1;glass=0;dashed=1;sketch=0;fontSize=17;fontColor=#FFFFFF;strokeColor=#0B1922;strokeWidth=0;fillColor=#0089BE;fontStyle=2" parent="1" vertex="1">
          <mxGeometry x="294" y="1916" width="90" height="45.5" as="geometry" />
        </mxCell>
        <mxCell id="q62LZAC1qhZ32H_XYZBD-89" value="Access" style="rounded=1;whiteSpace=wrap;html=1;shadow=1;glass=0;dashed=1;sketch=0;fontSize=17;fontColor=#FFFFFF;strokeColor=#0B1922;strokeWidth=0;fillColor=#0089BE;fontStyle=2" parent="1" vertex="1">
          <mxGeometry x="294" y="1980" width="90" height="45.5" as="geometry" />
        </mxCell>
        <mxCell id="q62LZAC1qhZ32H_XYZBD-91" value="Access" style="rounded=1;whiteSpace=wrap;html=1;shadow=1;glass=0;dashed=1;sketch=0;fontSize=17;fontColor=#FFFFFF;strokeColor=#0B1922;strokeWidth=0;fillColor=#0089BE;fontStyle=2" parent="1" vertex="1">
          <mxGeometry x="402" y="1916" width="90" height="45.5" as="geometry" />
        </mxCell>
        <mxCell id="q62LZAC1qhZ32H_XYZBD-92" value="Access" style="rounded=1;whiteSpace=wrap;html=1;shadow=1;glass=0;dashed=1;sketch=0;fontSize=17;fontColor=#FFFFFF;strokeColor=#0B1922;strokeWidth=0;fillColor=#0089BE;fontStyle=2" parent="1" vertex="1">
          <mxGeometry x="402" y="1980" width="90" height="45.5" as="geometry" />
        </mxCell>
        <mxCell id="q62LZAC1qhZ32H_XYZBD-93" value="Access" style="rounded=1;whiteSpace=wrap;html=1;shadow=1;glass=0;dashed=1;sketch=0;fontSize=17;fontColor=#FFFFFF;strokeColor=#0B1922;strokeWidth=0;fillColor=#0089BE;fontStyle=2" parent="1" vertex="1">
          <mxGeometry x="501" y="1914.75" width="90" height="45.5" as="geometry" />
        </mxCell>
        <mxCell id="q62LZAC1qhZ32H_XYZBD-94" value="Access" style="rounded=1;whiteSpace=wrap;html=1;shadow=1;glass=0;dashed=1;sketch=0;fontSize=17;fontColor=#FFFFFF;strokeColor=#0B1922;strokeWidth=0;fillColor=#0089BE;fontStyle=2" parent="1" vertex="1">
          <mxGeometry x="501" y="1978.75" width="90" height="45.5" as="geometry" />
        </mxCell>
        <mxCell id="q62LZAC1qhZ32H_XYZBD-95" value="Proxy" style="rounded=1;whiteSpace=wrap;html=1;shadow=0;glass=0;sketch=0;fontSize=17;fontColor=#222138;strokeColor=#0B1922;strokeWidth=0;fillColor=#EEEEEE;fontStyle=2" parent="1" vertex="1">
          <mxGeometry x="283" y="1794" width="90" height="45.5" as="geometry" />
        </mxCell>
        <mxCell id="q62LZAC1qhZ32H_XYZBD-96" value="Proxy" style="rounded=1;whiteSpace=wrap;html=1;shadow=0;glass=0;sketch=0;fontSize=17;fontColor=#222138;strokeColor=#0B1922;strokeWidth=0;fillColor=#EEEEEE;fontStyle=2" parent="1" vertex="1">
          <mxGeometry x="393" y="1794" width="90" height="45.5" as="geometry" />
        </mxCell>
        <mxCell id="q62LZAC1qhZ32H_XYZBD-97" value="&lt;font color=&quot;#222138&quot;&gt;代理层&lt;/font&gt;" style="text;html=1;strokeColor=none;fillColor=none;align=center;verticalAlign=middle;whiteSpace=wrap;rounded=0;shadow=1;glass=0;sketch=0;fontSize=17;fontColor=#FFFFFF;" parent="1" vertex="1">
          <mxGeometry x="521" y="1800" width="61" height="36" as="geometry" />
        </mxCell>
        <mxCell id="q62LZAC1qhZ32H_XYZBD-99" value="&lt;b style=&quot;font-size: 12px;&quot;&gt;Meta data 1&lt;/b&gt;" style="rounded=1;whiteSpace=wrap;html=1;shadow=1;glass=0;dashed=1;sketch=0;fontSize=17;fontColor=#222138;strokeColor=#0B1922;strokeWidth=0;fillColor=#DAD2CA;fontStyle=2" parent="1" vertex="1">
          <mxGeometry x="126" y="1787" width="90" height="45.5" as="geometry" />
        </mxCell>
        <mxCell id="q62LZAC1qhZ32H_XYZBD-100" value="&lt;b style=&quot;font-size: 12px;&quot;&gt;Meta data 2&lt;/b&gt;" style="rounded=1;whiteSpace=wrap;html=1;shadow=1;glass=0;dashed=1;sketch=0;fontSize=17;fontColor=#222138;strokeColor=#0B1922;strokeWidth=0;fillColor=#DAD2CA;fontStyle=2" parent="1" vertex="1">
          <mxGeometry x="126" y="1855.5" width="90" height="45.5" as="geometry" />
        </mxCell>
        <mxCell id="q62LZAC1qhZ32H_XYZBD-102" value="&lt;font style=&quot;font-size: 12px;&quot;&gt;&lt;b&gt;Meta data 3&lt;/b&gt;&lt;/font&gt;" style="rounded=1;whiteSpace=wrap;html=1;shadow=1;glass=0;dashed=1;sketch=0;fontSize=17;fontColor=#222138;strokeColor=#0B1922;strokeWidth=0;fillColor=#DAD2CA;fontStyle=2" parent="1" vertex="1">
          <mxGeometry x="126" y="1926" width="90" height="45.5" as="geometry" />
        </mxCell>
        <mxCell id="q62LZAC1qhZ32H_XYZBD-112" style="rounded=0;orthogonalLoop=1;jettySize=auto;html=1;exitX=0.5;exitY=0;exitDx=0;exitDy=0;fontSize=17;fontColor=#222138;strokeColor=#A9A9A9;strokeWidth=2;entryX=0;entryY=0.5;entryDx=0;entryDy=0;edgeStyle=orthogonalEdgeStyle;curved=1;" parent="1" source="q62LZAC1qhZ32H_XYZBD-111" target="q62LZAC1qhZ32H_XYZBD-102" edge="1">
          <mxGeometry relative="1" as="geometry" />
        </mxCell>
        <mxCell id="q62LZAC1qhZ32H_XYZBD-113" style="rounded=0;orthogonalLoop=1;jettySize=auto;html=1;exitX=0.5;exitY=0;exitDx=0;exitDy=0;entryX=0;entryY=0.5;entryDx=0;entryDy=0;fontSize=17;fontColor=#222138;strokeColor=#A9A9A9;strokeWidth=2;edgeStyle=orthogonalEdgeStyle;curved=1;" parent="1" source="q62LZAC1qhZ32H_XYZBD-111" target="q62LZAC1qhZ32H_XYZBD-100" edge="1">
          <mxGeometry relative="1" as="geometry" />
        </mxCell>
        <mxCell id="q62LZAC1qhZ32H_XYZBD-114" style="rounded=0;orthogonalLoop=1;jettySize=auto;html=1;exitX=0.5;exitY=0;exitDx=0;exitDy=0;entryX=0;entryY=0.5;entryDx=0;entryDy=0;fontSize=17;fontColor=#222138;strokeColor=#A9A9A9;strokeWidth=2;edgeStyle=orthogonalEdgeStyle;curved=1;" parent="1" source="q62LZAC1qhZ32H_XYZBD-111" target="q62LZAC1qhZ32H_XYZBD-99" edge="1">
          <mxGeometry relative="1" as="geometry" />
        </mxCell>
        <mxCell id="q62LZAC1qhZ32H_XYZBD-111" value="Raft" style="rounded=1;whiteSpace=wrap;html=1;shadow=0;glass=0;sketch=0;fontSize=17;fontColor=#222138;strokeColor=#222138;strokeWidth=0;fillColor=#DAD2CA;" parent="1" vertex="1">
          <mxGeometry x="67" y="1984" width="60" height="28" as="geometry" />
        </mxCell>
        <mxCell id="q62LZAC1qhZ32H_XYZBD-115" value="" style="rounded=1;whiteSpace=wrap;html=1;shadow=0;glass=0;sketch=0;fontSize=17;fontColor=#FFFFFF;strokeColor=#222138;strokeWidth=1;fillColor=#FFFFFF;dashed=1;" parent="1" vertex="1">
          <mxGeometry x="618" y="1777" width="156" height="268" as="geometry" />
        </mxCell>
        <mxCell id="q62LZAC1qhZ32H_XYZBD-117" value="Access" style="rounded=1;whiteSpace=wrap;html=1;shadow=1;glass=0;dashed=1;sketch=0;fontSize=17;fontColor=#222138;strokeColor=#0B1922;strokeWidth=0;fillColor=#EEEEEE;fontStyle=2" parent="1" vertex="1">
          <mxGeometry x="639" y="1873" width="90" height="45.5" as="geometry" />
        </mxCell>
        <mxCell id="q62LZAC1qhZ32H_XYZBD-118" value="Access" style="rounded=1;whiteSpace=wrap;html=1;shadow=1;glass=0;dashed=1;sketch=0;fontSize=17;fontColor=#222138;strokeColor=#0B1922;strokeWidth=0;fillColor=#EEEEEE;fontStyle=2" parent="1" vertex="1">
          <mxGeometry x="656" y="1881" width="90" height="45.5" as="geometry" />
        </mxCell>
        <mxCell id="q62LZAC1qhZ32H_XYZBD-119" value="Scheduler" style="rounded=1;whiteSpace=wrap;html=1;shadow=1;glass=0;dashed=1;sketch=0;fontSize=17;fontColor=#222138;strokeColor=#0B1922;strokeWidth=0;fillColor=#EEEEEE;fontStyle=2" parent="1" vertex="1">
          <mxGeometry x="671" y="1891.5" width="90" height="45.5" as="geometry" />
        </mxCell>
        <mxCell id="q62LZAC1qhZ32H_XYZBD-126" value="" style="rounded=1;whiteSpace=wrap;html=1;shadow=0;glass=0;sketch=0;fontSize=12;fontColor=#222138;strokeColor=#222138;strokeWidth=0;fillColor=#E8E6FF;arcSize=8;" parent="1" vertex="1">
          <mxGeometry x="68" y="2222" width="574" height="115" as="geometry" />
        </mxCell>
        <mxCell id="q62LZAC1qhZ32H_XYZBD-127" value="" style="rounded=1;whiteSpace=wrap;html=1;shadow=0;glass=0;sketch=0;fontSize=12;fontColor=#222138;strokeColor=#222138;strokeWidth=0;fillColor=#9581F7;" parent="1" vertex="1">
          <mxGeometry x="121" y="2236" width="118" height="43" as="geometry" />
        </mxCell>
        <mxCell id="q62LZAC1qhZ32H_XYZBD-130" value="" style="rounded=1;whiteSpace=wrap;html=1;shadow=0;glass=0;sketch=0;fontSize=12;fontColor=#222138;strokeColor=#222138;strokeWidth=0;fillColor=#9581F7;" parent="1" vertex="1">
          <mxGeometry x="121" y="2282" width="118" height="43" as="geometry" />
        </mxCell>
        <mxCell id="q62LZAC1qhZ32H_XYZBD-131" value="" style="rounded=1;whiteSpace=wrap;html=1;shadow=0;glass=0;sketch=0;fontSize=12;fontColor=#222138;strokeColor=#222138;strokeWidth=0;fillColor=#9581F7;" parent="1" vertex="1">
          <mxGeometry x="296" y="2236" width="118" height="43" as="geometry" />
        </mxCell>
        <mxCell id="q62LZAC1qhZ32H_XYZBD-132" value="" style="rounded=1;whiteSpace=wrap;html=1;shadow=0;glass=0;sketch=0;fontSize=12;fontColor=#222138;strokeColor=#222138;strokeWidth=0;fillColor=#9581F7;" parent="1" vertex="1">
          <mxGeometry x="296" y="2282" width="118" height="43" as="geometry" />
        </mxCell>
        <mxCell id="q62LZAC1qhZ32H_XYZBD-133" value="" style="rounded=1;whiteSpace=wrap;html=1;shadow=0;glass=0;sketch=0;fontSize=12;fontColor=#222138;strokeColor=#222138;strokeWidth=0;fillColor=#9581F7;" parent="1" vertex="1">
          <mxGeometry x="482" y="2236" width="118" height="43" as="geometry" />
        </mxCell>
        <mxCell id="q62LZAC1qhZ32H_XYZBD-134" value="" style="rounded=1;whiteSpace=wrap;html=1;shadow=0;glass=0;sketch=0;fontSize=12;fontColor=#222138;strokeColor=#222138;strokeWidth=0;fillColor=#9581F7;" parent="1" vertex="1">
          <mxGeometry x="482" y="2282" width="118" height="43" as="geometry" />
        </mxCell>
        <mxCell id="q62LZAC1qhZ32H_XYZBD-145" value="" style="rounded=1;whiteSpace=wrap;html=1;shadow=0;glass=0;sketch=0;fontSize=12;fontColor=#222138;strokeColor=#222138;strokeWidth=0;fillColor=#C3F9F1;arcSize=8;" parent="1" vertex="1">
          <mxGeometry x="68" y="2355" width="574" height="115" as="geometry" />
        </mxCell>
        <mxCell id="q62LZAC1qhZ32H_XYZBD-146" value="&lt;span&gt;&lt;font face=&quot;Comic Sans MS&quot; color=&quot;#f4f9fc&quot;&gt;DATA &lt;br&gt;CONNECTORS&lt;/font&gt;&lt;/span&gt;" style="rounded=1;whiteSpace=wrap;html=1;shadow=0;glass=0;sketch=0;fontSize=12;fontColor=#222138;strokeColor=#222138;strokeWidth=0;fillColor=#00BDC7;fontStyle=3" parent="1" vertex="1">
          <mxGeometry x="121" y="2394" width="118" height="43" as="geometry" />
        </mxCell>
        <mxCell id="q62LZAC1qhZ32H_XYZBD-147" value="&lt;b&gt;&lt;font face=&quot;Comic Sans MS&quot; color=&quot;#f4f9fc&quot;&gt;&lt;i style=&quot;&quot;&gt;00BDC7&lt;/i&gt;&lt;/font&gt;&lt;/b&gt;" style="rounded=1;whiteSpace=wrap;html=1;shadow=0;glass=0;sketch=0;fontSize=12;fontColor=#222138;strokeColor=#222138;strokeWidth=0;fillColor=#00BDC7;" parent="1" vertex="1">
          <mxGeometry x="296" y="2391" width="118" height="43" as="geometry" />
        </mxCell>
        <mxCell id="q62LZAC1qhZ32H_XYZBD-149" value="" style="rounded=1;whiteSpace=wrap;html=1;shadow=0;glass=0;sketch=0;fontSize=12;fontColor=#222138;strokeColor=#222138;strokeWidth=0;fillColor=#00BDC7;" parent="1" vertex="1">
          <mxGeometry x="482" y="2389" width="118" height="43" as="geometry" />
        </mxCell>
        <mxCell id="q62LZAC1qhZ32H_XYZBD-151" value="" style="rounded=1;whiteSpace=wrap;html=1;shadow=0;glass=0;sketch=0;fontSize=12;fontColor=#222138;strokeColor=#222138;strokeWidth=0;fillColor=#DDE8FD;arcSize=8;" parent="1" vertex="1">
          <mxGeometry x="68" y="2494" width="574" height="115" as="geometry" />
        </mxCell>
        <mxCell id="q62LZAC1qhZ32H_XYZBD-152" value="" style="rounded=1;whiteSpace=wrap;html=1;shadow=0;glass=0;sketch=0;fontSize=12;fontColor=#222138;strokeColor=#222138;strokeWidth=0;fillColor=#6D9AF1;" parent="1" vertex="1">
          <mxGeometry x="121" y="2523" width="118" height="43" as="geometry" />
        </mxCell>
        <mxCell id="q62LZAC1qhZ32H_XYZBD-153" value="" style="rounded=1;whiteSpace=wrap;html=1;shadow=0;glass=0;sketch=0;fontSize=12;fontColor=#222138;strokeColor=#222138;strokeWidth=0;fillColor=#6D9AF1;" parent="1" vertex="1">
          <mxGeometry x="296" y="2523" width="118" height="43" as="geometry" />
        </mxCell>
        <mxCell id="q62LZAC1qhZ32H_XYZBD-155" value="" style="rounded=1;whiteSpace=wrap;html=1;shadow=0;glass=0;sketch=0;fontSize=12;fontColor=#222138;strokeColor=#222138;strokeWidth=0;fillColor=#6D9AF1;" parent="1" vertex="1">
          <mxGeometry x="482" y="2523" width="118" height="43" as="geometry" />
        </mxCell>
        <mxCell id="q62LZAC1qhZ32H_XYZBD-158" value="" style="rounded=1;whiteSpace=wrap;html=1;shadow=0;glass=0;sketch=0;fontSize=12;fontColor=#222138;strokeColor=#222138;strokeWidth=0;fillColor=#F0F5FF;arcSize=8;" parent="1" vertex="1">
          <mxGeometry x="673" y="2223" width="92" height="386" as="geometry" />
        </mxCell>
        <mxCell id="q62LZAC1qhZ32H_XYZBD-159" value="" style="rounded=1;whiteSpace=wrap;html=1;shadow=0;glass=0;sketch=0;fontSize=12;fontColor=#222138;strokeColor=#222138;strokeWidth=0;fillColor=#60A5FA;" parent="1" vertex="1">
          <mxGeometry x="692" y="2238" width="53" height="158" as="geometry" />
        </mxCell>
        <mxCell id="q62LZAC1qhZ32H_XYZBD-160" value="&lt;font color=&quot;#f4f9fc&quot;&gt;&lt;b&gt;&lt;i&gt;001765&lt;/i&gt;&lt;/b&gt;&lt;/font&gt;" style="rounded=1;whiteSpace=wrap;html=1;shadow=0;glass=0;sketch=0;fontSize=12;fontColor=#222138;strokeColor=#222138;strokeWidth=0;fillColor=#60A5FA;direction=west;horizontal=0;" parent="1" vertex="1">
          <mxGeometry x="692" y="2431" width="53" height="158" as="geometry" />
        </mxCell>
        <mxCell id="q62LZAC1qhZ32H_XYZBD-163" value="&lt;font color=&quot;#001765&quot;&gt;GENIUS&lt;/font&gt;" style="text;html=1;strokeColor=none;fillColor=none;align=center;verticalAlign=middle;whiteSpace=wrap;rounded=0;shadow=0;glass=0;sketch=0;fontSize=17;fontColor=#F4F9FC;" parent="1" vertex="1">
          <mxGeometry x="320" y="2364" width="60" height="30" as="geometry" />
        </mxCell>
        <mxCell id="q62LZAC1qhZ32H_XYZBD-166" value="Text" style="text;html=1;align=center;verticalAlign=middle;resizable=0;points=[];autosize=1;strokeColor=none;fillColor=none;fontSize=17;fontFamily=Comic Sans MS;fontColor=#F4F9FC;" parent="1" vertex="1">
          <mxGeometry x="1254" y="2575" width="40" height="20" as="geometry" />
        </mxCell>
        <mxCell id="gOksZc0FfGlX3Zpmqvew-8" value="" style="edgeStyle=orthogonalEdgeStyle;rounded=0;orthogonalLoop=1;jettySize=auto;html=1;fontFamily=Georgia;fontSize=14;fontColor=#007FFF;strokeColor=#D9D9D9;strokeWidth=3;" parent="1" source="q62LZAC1qhZ32H_XYZBD-167" target="q62LZAC1qhZ32H_XYZBD-131" edge="1">
          <mxGeometry relative="1" as="geometry" />
        </mxCell>
        <mxCell id="q62LZAC1qhZ32H_XYZBD-167" value="https://www.pptfans.cn/706571.html" style="text;html=1;strokeColor=none;fillColor=none;align=center;verticalAlign=middle;whiteSpace=wrap;rounded=0;shadow=0;glass=0;sketch=0;fontFamily=Comic Sans MS;fontSize=17;fontColor=#000000;" parent="1" vertex="1">
          <mxGeometry x="163" y="2200" width="119" height="14" as="geometry" />
        </mxCell>
        <mxCell id="q62LZAC1qhZ32H_XYZBD-169" value="&lt;font color=&quot;#ffffff&quot;&gt;GetColor.exe&lt;/font&gt;" style="rounded=1;whiteSpace=wrap;html=1;shadow=0;glass=0;sketch=0;fontFamily=Comic Sans MS;fontSize=17;fontColor=#000000;strokeColor=#222138;strokeWidth=0;fillColor=#0662FF;" parent="1" vertex="1">
          <mxGeometry x="113" y="2716" width="120" height="60" as="geometry" />
        </mxCell>
        <mxCell id="q62LZAC1qhZ32H_XYZBD-170" value="" style="rounded=1;whiteSpace=wrap;html=1;shadow=0;glass=0;sketch=0;fontFamily=Comic Sans MS;fontSize=17;fontColor=#000000;strokeColor=#222138;strokeWidth=0;fillColor=#004CB3;" parent="1" vertex="1">
          <mxGeometry x="250" y="2716" width="120" height="60" as="geometry" />
        </mxCell>
        <mxCell id="q62LZAC1qhZ32H_XYZBD-171" value="" style="rounded=1;whiteSpace=wrap;html=1;shadow=0;glass=0;sketch=0;fontFamily=Comic Sans MS;fontSize=17;fontColor=#000000;strokeColor=#222138;strokeWidth=0;fillColor=#0E6B7D;" parent="1" vertex="1">
          <mxGeometry x="387" y="2716" width="120" height="60" as="geometry" />
        </mxCell>
        <mxCell id="q62LZAC1qhZ32H_XYZBD-172" value="" style="rounded=1;whiteSpace=wrap;html=1;shadow=0;glass=0;sketch=0;fontFamily=Comic Sans MS;fontSize=17;fontColor=#000000;strokeColor=#222138;strokeWidth=0;fillColor=#E9F8FB;" parent="1" vertex="1">
          <mxGeometry x="386" y="2812" width="120" height="60" as="geometry" />
        </mxCell>
        <mxCell id="q62LZAC1qhZ32H_XYZBD-173" value="" style="rounded=1;whiteSpace=wrap;html=1;shadow=0;glass=0;sketch=0;fontFamily=Comic Sans MS;fontSize=17;fontColor=#000000;strokeColor=#222138;strokeWidth=0;fillColor=#EAF6FF;" parent="1" vertex="1">
          <mxGeometry x="250" y="2812" width="120" height="60" as="geometry" />
        </mxCell>
        <mxCell id="q62LZAC1qhZ32H_XYZBD-174" value="" style="rounded=1;whiteSpace=wrap;html=1;shadow=0;glass=0;sketch=0;fontFamily=Comic Sans MS;fontSize=17;fontColor=#000000;strokeColor=#222138;strokeWidth=0;fillColor=#E7F0FF;" parent="1" vertex="1">
          <mxGeometry x="113" y="2812" width="120" height="60" as="geometry" />
        </mxCell>
        <mxCell id="q62LZAC1qhZ32H_XYZBD-175" value="" style="rounded=1;whiteSpace=wrap;html=1;shadow=0;glass=0;sketch=0;fontFamily=Comic Sans MS;fontSize=17;fontColor=#000000;strokeColor=#0E6B7D;strokeWidth=1;fillColor=#F4F9FC;" parent="1" vertex="1">
          <mxGeometry x="387" y="2899" width="120" height="60" as="geometry" />
        </mxCell>
        <mxCell id="q62LZAC1qhZ32H_XYZBD-176" value="ColorPix.exe" style="rounded=1;whiteSpace=wrap;html=1;shadow=0;glass=0;sketch=0;fontFamily=Comic Sans MS;fontSize=17;fontColor=#000000;strokeColor=#004CB3;strokeWidth=1;fillColor=#F4F9FC;" parent="1" vertex="1">
          <mxGeometry x="251" y="2899" width="120" height="60" as="geometry" />
        </mxCell>
        <mxCell id="q62LZAC1qhZ32H_XYZBD-177" value="" style="rounded=1;whiteSpace=wrap;html=1;shadow=0;glass=0;sketch=0;fontFamily=Comic Sans MS;fontSize=17;fontColor=#000000;strokeColor=#0662FF;strokeWidth=1;fillColor=#F4F9FC;" parent="1" vertex="1">
          <mxGeometry x="113" y="2899" width="120" height="60" as="geometry" />
        </mxCell>
        <mxCell id="q62LZAC1qhZ32H_XYZBD-178" value="" style="rounded=1;whiteSpace=wrap;html=1;shadow=0;glass=0;sketch=0;fontFamily=Comic Sans MS;fontSize=17;fontColor=#000000;strokeColor=#000000;strokeWidth=0;fillColor=#F4F9FC;" parent="1" vertex="1">
          <mxGeometry x="386" y="2991" width="120" height="60" as="geometry" />
        </mxCell>
        <mxCell id="q62LZAC1qhZ32H_XYZBD-179" value="" style="rounded=1;whiteSpace=wrap;html=1;shadow=0;glass=0;sketch=0;fontFamily=Comic Sans MS;fontSize=17;fontColor=#000000;strokeColor=#222138;strokeWidth=0;fillColor=#F2F2F2;" parent="1" vertex="1">
          <mxGeometry x="250" y="2991" width="120" height="60" as="geometry" />
        </mxCell>
        <mxCell id="q62LZAC1qhZ32H_XYZBD-180" value="" style="rounded=1;whiteSpace=wrap;html=1;shadow=0;glass=0;sketch=0;fontFamily=Comic Sans MS;fontSize=17;fontColor=#000000;strokeColor=#222138;strokeWidth=0;fillColor=#DADADA;" parent="1" vertex="1">
          <mxGeometry x="113" y="2991" width="120" height="60" as="geometry" />
        </mxCell>
        <mxCell id="q62LZAC1qhZ32H_XYZBD-181" value="色块样式&amp;amp;色彩区分" style="text;strokeColor=none;fillColor=none;html=1;fontSize=24;fontStyle=1;verticalAlign=middle;align=center;rounded=1;shadow=0;glass=0;sketch=0;fontFamily=Comic Sans MS;fontColor=#000000;" parent="1" vertex="1">
          <mxGeometry x="117" y="2663" width="206" height="37" as="geometry" />
        </mxCell>
        <mxCell id="gOksZc0FfGlX3Zpmqvew-6" style="edgeStyle=orthogonalEdgeStyle;rounded=0;orthogonalLoop=1;jettySize=auto;html=1;exitX=1;exitY=0.5;exitDx=0;exitDy=0;fontFamily=Georgia;fontSize=14;fontColor=#007FFF;strokeColor=#D9D9D9;strokeWidth=3;" parent="1" source="gOksZc0FfGlX3Zpmqvew-1" edge="1">
          <mxGeometry relative="1" as="geometry">
            <mxPoint x="352" y="3219" as="targetPoint" />
          </mxGeometry>
        </mxCell>
        <mxCell id="gOksZc0FfGlX3Zpmqvew-1" value="&lt;font face=&quot;Comic Sans MS&quot; style=&quot;font-size: 14px;&quot; color=&quot;#007fff&quot;&gt;EAF3FF&lt;/font&gt;" style="rounded=1;whiteSpace=wrap;html=1;fillColor=#EAF3FF;strokeColor=#8DB9FF;strokeWidth=4;" parent="1" vertex="1">
          <mxGeometry x="167" y="3189" width="120" height="60" as="geometry" />
        </mxCell>
        <mxCell id="gOksZc0FfGlX3Zpmqvew-2" value="&lt;font face=&quot;Georgia&quot; color=&quot;#007fff&quot; style=&quot;font-size: 14px;&quot;&gt;8DB9FF&lt;/font&gt;" style="rounded=1;whiteSpace=wrap;html=1;fillColor=#EAF3FF;strokeColor=#8DB9FF;strokeWidth=4;" parent="1" vertex="1">
          <mxGeometry x="356" y="3193" width="120" height="60" as="geometry" />
        </mxCell>
        <mxCell id="gOksZc0FfGlX3Zpmqvew-3" value="&lt;span style=&quot;font-family: &amp;quot;Comic Sans MS&amp;quot;;&quot;&gt;背景#EAF3FF&lt;br&gt;线框#&lt;/span&gt;8DB9FF&lt;br&gt;&lt;font face=&quot;Comic Sans MS&quot;&gt;字体#007FFF&lt;br&gt;连线#D9D9D9&amp;nbsp;&lt;br&gt;&lt;/font&gt;" style="text;html=1;strokeColor=none;fillColor=none;align=center;verticalAlign=middle;whiteSpace=wrap;rounded=0;fontFamily=Georgia;fontSize=14;fontColor=#007FFF;" parent="1" vertex="1">
          <mxGeometry x="24" y="3180" width="116" height="185" as="geometry" />
        </mxCell>
        <mxCell id="gOksZc0FfGlX3Zpmqvew-7" style="edgeStyle=orthogonalEdgeStyle;rounded=0;orthogonalLoop=1;jettySize=auto;html=1;exitX=1;exitY=0.5;exitDx=0;exitDy=0;entryX=0.5;entryY=1;entryDx=0;entryDy=0;fontFamily=Georgia;fontSize=14;fontColor=#007FFF;strokeColor=#D9D9D9;strokeWidth=3;" parent="1" source="gOksZc0FfGlX3Zpmqvew-4" target="gOksZc0FfGlX3Zpmqvew-2" edge="1">
          <mxGeometry relative="1" as="geometry" />
        </mxCell>
        <mxCell id="gOksZc0FfGlX3Zpmqvew-4" value="&lt;font face=&quot;Georgia&quot; color=&quot;#007fff&quot; style=&quot;font-size: 14px;&quot;&gt;8DB9FF&lt;/font&gt;" style="rounded=1;whiteSpace=wrap;html=1;fillColor=#EAF3FF;strokeColor=#8DB9FF;strokeWidth=4;" parent="1" vertex="1">
          <mxGeometry x="161" y="3301" width="120" height="60" as="geometry" />
        </mxCell>
        <mxCell id="9xls_5BQ1uJy0BUJDpcb-1" value="465EFF" style="rounded=1;whiteSpace=wrap;html=1;fillColor=#465EFF;strokeWidth=0;fontColor=#FFFFFF;" parent="1" vertex="1">
          <mxGeometry x="134" y="3527.5" width="120" height="60" as="geometry" />
        </mxCell>
        <mxCell id="9xls_5BQ1uJy0BUJDpcb-2" value="&lt;font color=&quot;#ffffff&quot;&gt;90C9F8&lt;/font&gt;" style="rounded=1;whiteSpace=wrap;html=1;fillColor=#90C9F8;strokeWidth=0;" parent="1" vertex="1">
          <mxGeometry x="134" y="3599.5" width="120" height="60" as="geometry" />
        </mxCell>
        <mxCell id="9xls_5BQ1uJy0BUJDpcb-3" value="24D5DB" style="whiteSpace=wrap;html=1;rounded=1;fillColor=#24D5DB;strokeWidth=0;fontColor=#FFFFFF;" parent="1" vertex="1">
          <mxGeometry x="134" y="3676.5" width="120" height="60" as="geometry" />
        </mxCell>
        <mxCell id="9xls_5BQ1uJy0BUJDpcb-8" value="&lt;font color=&quot;#ffffff&quot;&gt;5C28F2&lt;/font&gt;" style="rounded=1;whiteSpace=wrap;html=1;fillColor=#5C28F2;strokeWidth=0;strokeColor=#FFFFFF;" parent="1" vertex="1">
          <mxGeometry x="131" y="3754" width="372" height="64" as="geometry" />
        </mxCell>
        <mxCell id="9xls_5BQ1uJy0BUJDpcb-9" value="&lt;font face=&quot;Comic Sans MS&quot;&gt;465EFF&lt;/font&gt;" style="rounded=1;whiteSpace=wrap;html=1;fillColor=#465EFF;strokeWidth=0;fontColor=#FFFFFF;" parent="1" vertex="1">
          <mxGeometry x="381" y="3530" width="120" height="60" as="geometry" />
        </mxCell>
        <mxCell id="9xls_5BQ1uJy0BUJDpcb-10" value="&lt;font color=&quot;#ffffff&quot;&gt;90C9F8&lt;/font&gt;" style="rounded=1;whiteSpace=wrap;html=1;fillColor=#90C9F8;strokeWidth=0;" parent="1" vertex="1">
          <mxGeometry x="381" y="3602" width="120" height="60" as="geometry" />
        </mxCell>
        <mxCell id="9xls_5BQ1uJy0BUJDpcb-11" value="24D5DB" style="whiteSpace=wrap;html=1;rounded=1;fillColor=#24D5DB;strokeWidth=0;fontColor=#FFFFFF;" parent="1" vertex="1">
          <mxGeometry x="381" y="3679" width="120" height="60" as="geometry" />
        </mxCell>
        <mxCell id="DcDH69yebzJcStfvRp9o-1" value="" style="rounded=1;whiteSpace=wrap;html=1;fontFamily=Helvetica;fontSize=12;fontColor=default;strokeColor=#339af0;strokeWidth=2;fillColor=#FFFFFF;" parent="1" vertex="1">
          <mxGeometry x="872" y="1652" width="760" height="88" as="geometry" />
        </mxCell>
        <mxCell id="DcDH69yebzJcStfvRp9o-2" value="视频入库" style="rounded=1;whiteSpace=wrap;html=1;fontFamily=Helvetica;fontSize=12;fontColor=default;strokeColor=#339af0;strokeWidth=2;fillColor=#FFFFFF;" parent="1" vertex="1">
          <mxGeometry x="884" y="1661" width="120" height="60" as="geometry" />
        </mxCell>
        <mxCell id="DcDH69yebzJcStfvRp9o-3" value="视频推荐" style="rounded=1;whiteSpace=wrap;html=1;fontFamily=Helvetica;fontSize=12;fontColor=default;strokeColor=#339af0;strokeWidth=2;fillColor=#FFFFFF;" parent="1" vertex="1">
          <mxGeometry x="1041" y="1661" width="120" height="60" as="geometry" />
        </mxCell>
        <mxCell id="DcDH69yebzJcStfvRp9o-4" value="视频查询" style="rounded=1;whiteSpace=wrap;html=1;fontFamily=Helvetica;fontSize=12;fontColor=default;strokeColor=#339af0;strokeWidth=2;fillColor=#FFFFFF;" parent="1" vertex="1">
          <mxGeometry x="1193" y="1661" width="120" height="60" as="geometry" />
        </mxCell>
        <mxCell id="DcDH69yebzJcStfvRp9o-5" value="&lt;font style=&quot;font-size: 13px&quot;&gt;&lt;span style=&quot;font-size: 12px;&quot;&gt;视频&lt;/span&gt;整合&lt;/font&gt;" style="rounded=1;whiteSpace=wrap;html=1;fontFamily=Helvetica;fontSize=12;fontColor=default;strokeColor=#339af0;strokeWidth=2;fillColor=#FFFFFF;" parent="1" vertex="1">
          <mxGeometry x="1354" y="1664" width="120" height="60" as="geometry" />
        </mxCell>
        <mxCell id="DcDH69yebzJcStfvRp9o-6" value="&lt;font size=&quot;1&quot;&gt;&lt;b style=&quot;font-size: 18px&quot;&gt;...&lt;/b&gt;&lt;/font&gt;" style="rounded=1;whiteSpace=wrap;html=1;fontFamily=Helvetica;fontSize=12;fontColor=default;strokeColor=#339af0;strokeWidth=2;fillColor=#FFFFFF;" parent="1" vertex="1">
          <mxGeometry x="1496" y="1661" width="120" height="60" as="geometry" />
        </mxCell>
        <mxCell id="DcDH69yebzJcStfvRp9o-7" value="" style="edgeStyle=orthogonalEdgeStyle;curved=0;rounded=1;sketch=0;orthogonalLoop=1;jettySize=auto;html=1;fontColor=#FFFFFF;strokeColor=#006658;fillColor=#21C0A5;" parent="1" source="DcDH69yebzJcStfvRp9o-8" target="DcDH69yebzJcStfvRp9o-11" edge="1">
          <mxGeometry relative="1" as="geometry" />
        </mxCell>
        <mxCell id="DcDH69yebzJcStfvRp9o-8" value="&lt;font color=&quot;#6666ff&quot;&gt;&lt;span style=&quot;font-size: 24px&quot;&gt;服务端&lt;/span&gt;&lt;/font&gt;" style="rounded=1;whiteSpace=wrap;html=1;sketch=0;fontColor=#FFFFFF;strokeColor=default;fillColor=#f1f3f5;" parent="1" vertex="1">
          <mxGeometry x="1114" y="1890" width="120" height="60" as="geometry" />
        </mxCell>
        <mxCell id="DcDH69yebzJcStfvRp9o-9" value="" style="edgeStyle=orthogonalEdgeStyle;curved=0;rounded=1;sketch=0;orthogonalLoop=1;jettySize=auto;html=1;fontColor=#FFFFFF;strokeColor=#006658;fillColor=#21C0A5;" parent="1" source="DcDH69yebzJcStfvRp9o-11" target="DcDH69yebzJcStfvRp9o-13" edge="1">
          <mxGeometry relative="1" as="geometry" />
        </mxCell>
        <mxCell id="DcDH69yebzJcStfvRp9o-10" style="edgeStyle=orthogonalEdgeStyle;curved=0;rounded=1;sketch=0;orthogonalLoop=1;jettySize=auto;html=1;exitX=0.5;exitY=1;exitDx=0;exitDy=0;entryX=0.5;entryY=0;entryDx=0;entryDy=0;fontColor=#FFFFFF;strokeColor=#006658;fillColor=#21C0A5;" parent="1" source="DcDH69yebzJcStfvRp9o-11" target="DcDH69yebzJcStfvRp9o-12" edge="1">
          <mxGeometry relative="1" as="geometry" />
        </mxCell>
        <mxCell id="DcDH69yebzJcStfvRp9o-11" value="&lt;font style=&quot;font-size: 22px&quot; color=&quot;#6666ff&quot;&gt;OPUSH&lt;/font&gt;" style="whiteSpace=wrap;html=1;fillColor=#e9ecef;fontColor=#FFFFFF;rounded=1;sketch=0;strokeWidth=0;" parent="1" vertex="1">
          <mxGeometry x="1114" y="2030" width="120" height="60" as="geometry" />
        </mxCell>
        <mxCell id="DcDH69yebzJcStfvRp9o-12" value="&lt;font style=&quot;font-size: 16px&quot; face=&quot;Comic Sans MS&quot;&gt;&lt;i&gt;&lt;b&gt;1098ad&lt;/b&gt;&lt;/i&gt;&lt;/font&gt;" style="whiteSpace=wrap;html=1;fillColor=#1098ad;fontColor=#FFFFFF;rounded=1;sketch=0;strokeWidth=0;" parent="1" vertex="1">
          <mxGeometry x="1029" y="2161" width="120" height="60" as="geometry" />
        </mxCell>
        <mxCell id="DcDH69yebzJcStfvRp9o-13" value="&lt;font color=&quot;#000000&quot; style=&quot;font-size: 20px&quot; face=&quot;Comic Sans MS&quot;&gt;e3fafc&lt;/font&gt;" style="whiteSpace=wrap;html=1;fillColor=#e3fafc;fontColor=#FFFFFF;rounded=1;sketch=0;strokeWidth=0;" parent="1" vertex="1">
          <mxGeometry x="1213" y="2159" width="120" height="60" as="geometry" />
        </mxCell>
        <mxCell id="DcDH69yebzJcStfvRp9o-14" value="" style="rounded=1;whiteSpace=wrap;html=1;fontFamily=Helvetica;fontSize=21;fontColor=#007FFF;strokeColor=#D9D9D9;strokeWidth=2;fillColor=#FFFFFF;dashed=1;" parent="1" vertex="1">
          <mxGeometry x="998" y="2659" width="165" height="252" as="geometry" />
        </mxCell>
        <mxCell id="DcDH69yebzJcStfvRp9o-15" style="edgeStyle=orthogonalEdgeStyle;rounded=0;orthogonalLoop=1;jettySize=auto;html=1;exitX=0.5;exitY=1;exitDx=0;exitDy=0;entryX=0.5;entryY=0;entryDx=0;entryDy=0;fontSize=21;fontColor=#007FFF;strokeWidth=2;strokeColor=#D9D9D9;" parent="1" source="DcDH69yebzJcStfvRp9o-16" target="DcDH69yebzJcStfvRp9o-19" edge="1">
          <mxGeometry relative="1" as="geometry" />
        </mxCell>
        <mxCell id="DcDH69yebzJcStfvRp9o-16" value="&lt;font color=&quot;#007fff&quot; size=&quot;1&quot;&gt;&lt;b style=&quot;font-size: 15px&quot;&gt;腾讯&lt;/b&gt;&lt;/font&gt;" style="rounded=1;whiteSpace=wrap;html=1;fillColor=#EAF3FF;strokeColor=#8DB9FF;strokeWidth=4;" parent="1" vertex="1">
          <mxGeometry x="1017" y="2551" width="120" height="60" as="geometry" />
        </mxCell>
        <mxCell id="DcDH69yebzJcStfvRp9o-17" style="rounded=0;orthogonalLoop=1;jettySize=auto;html=1;exitX=1;exitY=0.5;exitDx=0;exitDy=0;labelBackgroundColor=default;fontFamily=Helvetica;fontSize=21;fontColor=#007FFF;endArrow=classic;strokeColor=#D9D9D9;strokeWidth=2;elbow=vertical;entryX=0;entryY=0.5;entryDx=0;entryDy=0;" parent="1" source="DcDH69yebzJcStfvRp9o-19" target="DcDH69yebzJcStfvRp9o-54" edge="1">
          <mxGeometry relative="1" as="geometry">
            <mxPoint x="1449" y="2705" as="targetPoint" />
          </mxGeometry>
        </mxCell>
        <mxCell id="DcDH69yebzJcStfvRp9o-18" style="edgeStyle=orthogonalEdgeStyle;shape=connector;rounded=1;orthogonalLoop=1;jettySize=auto;html=1;exitX=1;exitY=0.5;exitDx=0;exitDy=0;entryX=0;entryY=0.5;entryDx=0;entryDy=0;labelBackgroundColor=default;fontFamily=Helvetica;fontSize=21;fontColor=#007FFF;endArrow=classic;strokeColor=#9999FF;strokeWidth=2;elbow=vertical;" parent="1" source="DcDH69yebzJcStfvRp9o-19" target="DcDH69yebzJcStfvRp9o-47" edge="1">
          <mxGeometry relative="1" as="geometry" />
        </mxCell>
        <mxCell id="DcDH69yebzJcStfvRp9o-19" value="&lt;font color=&quot;#007fff&quot;&gt;&lt;span style=&quot;font-size: 14px;&quot;&gt;&lt;b&gt;宇宙条&lt;/b&gt;&lt;/span&gt;&lt;/font&gt;" style="whiteSpace=wrap;html=1;fillColor=#EAF3FF;strokeColor=#8DB9FF;rounded=1;strokeWidth=4;" parent="1" vertex="1">
          <mxGeometry x="1017" y="2677" width="120" height="60" as="geometry" />
        </mxCell>
        <mxCell id="DcDH69yebzJcStfvRp9o-20" style="edgeStyle=orthogonalEdgeStyle;curved=1;rounded=0;orthogonalLoop=1;jettySize=auto;html=1;exitX=0.5;exitY=1;exitDx=0;exitDy=0;entryX=0.5;entryY=0;entryDx=0;entryDy=0;labelBackgroundColor=default;fontFamily=Helvetica;fontSize=21;fontColor=#007FFF;endArrow=classic;strokeColor=#D9D9D9;strokeWidth=2;" parent="1" source="DcDH69yebzJcStfvRp9o-21" target="DcDH69yebzJcStfvRp9o-16" edge="1">
          <mxGeometry relative="1" as="geometry" />
        </mxCell>
        <mxCell id="DcDH69yebzJcStfvRp9o-21" value="&lt;font color=&quot;#007fff&quot; style=&quot;font-size: 14px&quot;&gt;&lt;b&gt;阿里&lt;/b&gt;&lt;/font&gt;" style="rounded=1;whiteSpace=wrap;html=1;fillColor=#EAF3FF;strokeColor=#8DB9FF;strokeWidth=4;" parent="1" vertex="1">
          <mxGeometry x="1017" y="2442" width="120" height="60" as="geometry" />
        </mxCell>
        <mxCell id="DcDH69yebzJcStfvRp9o-22" style="edgeStyle=none;rounded=0;orthogonalLoop=1;jettySize=auto;html=1;exitX=1;exitY=0.5;exitDx=0;exitDy=0;entryX=0;entryY=0.5;entryDx=0;entryDy=0;labelBackgroundColor=default;fontFamily=Helvetica;fontSize=21;fontColor=#007FFF;endArrow=classic;strokeColor=#D9D9D9;strokeWidth=2;elbow=vertical;" parent="1" source="DcDH69yebzJcStfvRp9o-23" target="DcDH69yebzJcStfvRp9o-39" edge="1">
          <mxGeometry relative="1" as="geometry" />
        </mxCell>
        <mxCell id="DcDH69yebzJcStfvRp9o-23" value="&lt;font color=&quot;#007fff&quot; style=&quot;font-size: 14px&quot;&gt;&lt;b&gt;管理中心&lt;/b&gt;&lt;/font&gt;" style="whiteSpace=wrap;html=1;fillColor=#EAF3FF;strokeColor=#8DB9FF;rounded=1;strokeWidth=4;" parent="1" vertex="1">
          <mxGeometry x="827" y="2817" width="85" height="60" as="geometry" />
        </mxCell>
        <mxCell id="DcDH69yebzJcStfvRp9o-24" value="&lt;span style=&quot;font-size: 12px;&quot;&gt;描述&lt;/span&gt;" style="text;html=1;strokeColor=none;fillColor=none;align=center;verticalAlign=middle;whiteSpace=wrap;rounded=0;fontFamily=Helvetica;fontSize=21;fontColor=#007FFF;" parent="1" vertex="1">
          <mxGeometry x="916" y="2812" width="88" height="25" as="geometry" />
        </mxCell>
        <mxCell id="DcDH69yebzJcStfvRp9o-25" value="" style="edgeStyle=none;rounded=0;orthogonalLoop=1;jettySize=auto;html=1;labelBackgroundColor=default;fontFamily=Helvetica;fontSize=21;fontColor=#007FFF;endArrow=classic;strokeColor=#D9D9D9;strokeWidth=2;elbow=vertical;" parent="1" target="DcDH69yebzJcStfvRp9o-29" edge="1">
          <mxGeometry relative="1" as="geometry">
            <mxPoint x="1522" y="2708" as="sourcePoint" />
          </mxGeometry>
        </mxCell>
        <mxCell id="DcDH69yebzJcStfvRp9o-26" value="" style="edgeStyle=none;rounded=0;orthogonalLoop=1;jettySize=auto;html=1;labelBackgroundColor=default;fontFamily=Helvetica;fontSize=21;fontColor=#007FFF;endArrow=classic;strokeColor=#D9D9D9;strokeWidth=2;elbow=vertical;" parent="1" source="DcDH69yebzJcStfvRp9o-29" edge="1">
          <mxGeometry relative="1" as="geometry">
            <mxPoint x="1672" y="2595" as="targetPoint" />
          </mxGeometry>
        </mxCell>
        <mxCell id="DcDH69yebzJcStfvRp9o-27" style="edgeStyle=orthogonalEdgeStyle;shape=connector;rounded=0;orthogonalLoop=1;jettySize=auto;html=1;exitX=0.5;exitY=1;exitDx=0;exitDy=0;entryX=0.5;entryY=0;entryDx=0;entryDy=0;labelBackgroundColor=default;fontFamily=Helvetica;fontSize=12;fontColor=default;endArrow=classic;strokeColor=#FF99FF;strokeWidth=2;dashed=1;" parent="1" source="DcDH69yebzJcStfvRp9o-29" target="DcDH69yebzJcStfvRp9o-49" edge="1">
          <mxGeometry relative="1" as="geometry" />
        </mxCell>
        <mxCell id="DcDH69yebzJcStfvRp9o-28" style="edgeStyle=orthogonalEdgeStyle;shape=connector;rounded=0;orthogonalLoop=1;jettySize=auto;html=1;exitX=1;exitY=0.5;exitDx=0;exitDy=0;dashed=1;labelBackgroundColor=default;fontFamily=Helvetica;fontSize=12;fontColor=#007FFF;endArrow=classic;strokeColor=#D9D9D9;strokeWidth=2;" parent="1" source="DcDH69yebzJcStfvRp9o-29" target="DcDH69yebzJcStfvRp9o-32" edge="1">
          <mxGeometry relative="1" as="geometry" />
        </mxCell>
        <mxCell id="DcDH69yebzJcStfvRp9o-29" value="&lt;font color=&quot;#007fff&quot;&gt;&lt;span style=&quot;font-size: 14px;&quot;&gt;&lt;b&gt;Netty&lt;/b&gt;&lt;/span&gt;&lt;/font&gt;" style="whiteSpace=wrap;html=1;fillColor=#EAF3FF;strokeColor=#8DB9FF;rounded=1;strokeWidth=4;" parent="1" vertex="1">
          <mxGeometry x="1612" y="2675" width="120" height="60" as="geometry" />
        </mxCell>
        <mxCell id="DcDH69yebzJcStfvRp9o-30" value="" style="edgeStyle=none;rounded=0;orthogonalLoop=1;jettySize=auto;html=1;labelBackgroundColor=default;fontFamily=Helvetica;fontSize=21;fontColor=#FF99FF;endArrow=classic;strokeColor=#20c997;strokeWidth=2;elbow=vertical;entryX=0.5;entryY=1;entryDx=0;entryDy=0;" parent="1" source="DcDH69yebzJcStfvRp9o-32" target="DcDH69yebzJcStfvRp9o-37" edge="1">
          <mxGeometry relative="1" as="geometry">
            <mxPoint x="1872" y="2595" as="targetPoint" />
          </mxGeometry>
        </mxCell>
        <mxCell id="DcDH69yebzJcStfvRp9o-31" style="edgeStyle=orthogonalEdgeStyle;shape=connector;rounded=1;orthogonalLoop=1;jettySize=auto;html=1;exitX=0.25;exitY=0;exitDx=0;exitDy=0;entryX=0.75;entryY=1;entryDx=0;entryDy=0;labelBackgroundColor=default;fontFamily=Helvetica;fontSize=12;fontColor=default;endArrow=classic;strokeColor=#FF99FF;strokeWidth=2;dashed=1;" parent="1" source="DcDH69yebzJcStfvRp9o-32" target="DcDH69yebzJcStfvRp9o-43" edge="1">
          <mxGeometry relative="1" as="geometry">
            <Array as="points">
              <mxPoint x="1842" y="2642" />
              <mxPoint x="1708" y="2642" />
            </Array>
          </mxGeometry>
        </mxCell>
        <mxCell id="DcDH69yebzJcStfvRp9o-32" value="&lt;font color=&quot;#007fff&quot;&gt;&lt;span style=&quot;font-size: 14px&quot;&gt;&lt;b&gt;MINA&lt;/b&gt;&lt;/span&gt;&lt;/font&gt;" style="whiteSpace=wrap;html=1;fillColor=#EAF3FF;strokeColor=#8DB9FF;rounded=1;strokeWidth=4;" parent="1" vertex="1">
          <mxGeometry x="1812" y="2675" width="120" height="60" as="geometry" />
        </mxCell>
        <mxCell id="DcDH69yebzJcStfvRp9o-33" style="edgeStyle=none;rounded=1;orthogonalLoop=1;jettySize=auto;html=1;exitX=0.5;exitY=0;exitDx=0;exitDy=0;entryX=0.5;entryY=1;entryDx=0;entryDy=0;labelBackgroundColor=default;fontFamily=Helvetica;fontSize=21;fontColor=#007FFF;endArrow=classic;strokeColor=#20c997;strokeWidth=2;elbow=vertical;" parent="1" source="DcDH69yebzJcStfvRp9o-37" target="DcDH69yebzJcStfvRp9o-44" edge="1">
          <mxGeometry relative="1" as="geometry" />
        </mxCell>
        <mxCell id="DcDH69yebzJcStfvRp9o-34" style="edgeStyle=orthogonalEdgeStyle;shape=connector;rounded=1;orthogonalLoop=1;jettySize=auto;html=1;exitX=0.5;exitY=0;exitDx=0;exitDy=0;entryX=0.5;entryY=1;entryDx=0;entryDy=0;labelBackgroundColor=default;fontFamily=Helvetica;fontSize=21;fontColor=#007FFF;endArrow=classic;strokeColor=#20c997;strokeWidth=2;elbow=vertical;" parent="1" source="DcDH69yebzJcStfvRp9o-37" target="DcDH69yebzJcStfvRp9o-57" edge="1">
          <mxGeometry relative="1" as="geometry" />
        </mxCell>
        <mxCell id="DcDH69yebzJcStfvRp9o-35" style="edgeStyle=orthogonalEdgeStyle;shape=connector;rounded=1;orthogonalLoop=1;jettySize=auto;html=1;exitX=0.5;exitY=0;exitDx=0;exitDy=0;entryX=0.5;entryY=1;entryDx=0;entryDy=0;labelBackgroundColor=default;fontFamily=Helvetica;fontSize=21;fontColor=#007FFF;endArrow=classic;strokeColor=#20c997;strokeWidth=2;elbow=vertical;" parent="1" source="DcDH69yebzJcStfvRp9o-37" target="DcDH69yebzJcStfvRp9o-58" edge="1">
          <mxGeometry relative="1" as="geometry" />
        </mxCell>
        <mxCell id="DcDH69yebzJcStfvRp9o-36" style="edgeStyle=orthogonalEdgeStyle;shape=connector;rounded=1;orthogonalLoop=1;jettySize=auto;html=1;exitX=0.5;exitY=0;exitDx=0;exitDy=0;entryX=0.567;entryY=1;entryDx=0;entryDy=0;entryPerimeter=0;labelBackgroundColor=default;fontFamily=Helvetica;fontSize=21;fontColor=#007FFF;endArrow=classic;strokeColor=#20c997;strokeWidth=2;elbow=vertical;" parent="1" source="DcDH69yebzJcStfvRp9o-37" edge="1">
          <mxGeometry relative="1" as="geometry">
            <mxPoint x="2307.04" y="2474" as="targetPoint" />
          </mxGeometry>
        </mxCell>
        <mxCell id="DcDH69yebzJcStfvRp9o-37" value="&lt;font&gt;&lt;span style=&quot;font-size: 14px&quot;&gt;&lt;b&gt;OLAP&lt;/b&gt;&lt;/span&gt;&lt;/font&gt;" style="whiteSpace=wrap;html=1;fillColor=#EAF3FF;strokeColor=#20c997;rounded=1;strokeWidth=4;fontColor=#20c997;" parent="1" vertex="1">
          <mxGeometry x="1812" y="2535" width="120" height="60" as="geometry" />
        </mxCell>
        <mxCell id="DcDH69yebzJcStfvRp9o-38" style="edgeStyle=none;rounded=0;orthogonalLoop=1;jettySize=auto;html=1;exitX=0.5;exitY=0;exitDx=0;exitDy=0;entryX=0.5;entryY=1;entryDx=0;entryDy=0;labelBackgroundColor=default;fontFamily=Helvetica;fontSize=21;fontColor=#007FFF;endArrow=classic;strokeColor=#D9D9D9;strokeWidth=2;elbow=vertical;" parent="1" source="DcDH69yebzJcStfvRp9o-39" target="DcDH69yebzJcStfvRp9o-19" edge="1">
          <mxGeometry relative="1" as="geometry" />
        </mxCell>
        <mxCell id="DcDH69yebzJcStfvRp9o-39" value="&lt;font color=&quot;#007fff&quot;&gt;&lt;span style=&quot;font-size: 14px&quot;&gt;&lt;b&gt;服务&lt;/b&gt;&lt;/span&gt;&lt;/font&gt;" style="whiteSpace=wrap;html=1;fillColor=#EAF3FF;strokeColor=#8DB9FF;rounded=1;strokeWidth=4;" parent="1" vertex="1">
          <mxGeometry x="1017" y="2817" width="120" height="60" as="geometry" />
        </mxCell>
        <mxCell id="DcDH69yebzJcStfvRp9o-40" value="&lt;span style=&quot;font-size: 12px;&quot;&gt;描述&lt;/span&gt;" style="text;html=1;strokeColor=none;fillColor=none;align=center;verticalAlign=middle;whiteSpace=wrap;rounded=0;fontFamily=Helvetica;fontSize=21;fontColor=#007FFF;" parent="1" vertex="1">
          <mxGeometry x="1015" y="2767" width="148" height="28" as="geometry" />
        </mxCell>
        <mxCell id="DcDH69yebzJcStfvRp9o-41" style="edgeStyle=orthogonalEdgeStyle;shape=connector;rounded=0;orthogonalLoop=1;jettySize=auto;html=1;exitX=0.5;exitY=0;exitDx=0;exitDy=0;entryX=0.5;entryY=1;entryDx=0;entryDy=0;labelBackgroundColor=default;fontFamily=Helvetica;fontSize=12;fontColor=default;endArrow=classic;strokeColor=#D9D9D9;strokeWidth=2;" parent="1" source="DcDH69yebzJcStfvRp9o-43" target="DcDH69yebzJcStfvRp9o-56" edge="1">
          <mxGeometry relative="1" as="geometry" />
        </mxCell>
        <mxCell id="DcDH69yebzJcStfvRp9o-42" style="edgeStyle=orthogonalEdgeStyle;shape=connector;rounded=0;orthogonalLoop=1;jettySize=auto;html=1;exitX=0.5;exitY=0;exitDx=0;exitDy=0;entryX=0.45;entryY=1.017;entryDx=0;entryDy=0;entryPerimeter=0;labelBackgroundColor=default;fontFamily=Helvetica;fontSize=12;fontColor=default;endArrow=classic;strokeColor=#D9D9D9;strokeWidth=2;" parent="1" source="DcDH69yebzJcStfvRp9o-43" target="DcDH69yebzJcStfvRp9o-55" edge="1">
          <mxGeometry relative="1" as="geometry" />
        </mxCell>
        <mxCell id="DcDH69yebzJcStfvRp9o-43" value="&lt;font color=&quot;#007fff&quot;&gt;&lt;span style=&quot;font-size: 14px;&quot;&gt;&lt;b&gt;NewSQL&lt;/b&gt;&lt;/span&gt;&lt;/font&gt;" style="whiteSpace=wrap;html=1;fillColor=#EAF3FF;strokeColor=#8DB9FF;rounded=1;strokeWidth=4;" parent="1" vertex="1">
          <mxGeometry x="1618" y="2535" width="120" height="60" as="geometry" />
        </mxCell>
        <mxCell id="DcDH69yebzJcStfvRp9o-44" value="&lt;span style=&quot;font-size: 14px&quot;&gt;&lt;b&gt;&lt;font&gt;Flink&lt;/font&gt;&lt;/b&gt;&lt;/span&gt;" style="whiteSpace=wrap;html=1;fillColor=#EAF3FF;strokeColor=#20c997;rounded=1;strokeWidth=4;fontColor=#20c997;" parent="1" vertex="1">
          <mxGeometry x="1812" y="2414" width="120" height="60" as="geometry" />
        </mxCell>
        <mxCell id="DcDH69yebzJcStfvRp9o-45" value="&lt;b&gt;&lt;i&gt;标题&lt;/i&gt;&lt;/b&gt;" style="text;html=1;strokeColor=none;fillColor=none;align=center;verticalAlign=middle;whiteSpace=wrap;rounded=0;fontFamily=Helvetica;fontSize=21;fontColor=#007FFF;" parent="1" vertex="1">
          <mxGeometry x="1039" y="2295" width="357" height="91" as="geometry" />
        </mxCell>
        <mxCell id="DcDH69yebzJcStfvRp9o-46" style="edgeStyle=orthogonalEdgeStyle;shape=connector;rounded=1;orthogonalLoop=1;jettySize=auto;html=1;exitX=1;exitY=0.5;exitDx=0;exitDy=0;labelBackgroundColor=default;fontFamily=Helvetica;fontSize=21;fontColor=#007FFF;endArrow=classic;strokeColor=#9999FF;strokeWidth=2;elbow=vertical;entryX=0.25;entryY=1;entryDx=0;entryDy=0;" parent="1" source="DcDH69yebzJcStfvRp9o-47" target="DcDH69yebzJcStfvRp9o-54" edge="1">
          <mxGeometry relative="1" as="geometry">
            <mxPoint x="1449" y="2847" as="targetPoint" />
          </mxGeometry>
        </mxCell>
        <mxCell id="DcDH69yebzJcStfvRp9o-47" value="&lt;font color=&quot;#007fff&quot;&gt;&lt;span style=&quot;font-size: 14px;&quot;&gt;&lt;b&gt;粗粮&lt;/b&gt;&lt;/span&gt;&lt;/font&gt;" style="whiteSpace=wrap;html=1;fillColor=#EAF3FF;strokeColor=#8DB9FF;rounded=1;strokeWidth=4;" parent="1" vertex="1">
          <mxGeometry x="1241" y="2817" width="120" height="60" as="geometry" />
        </mxCell>
        <mxCell id="DcDH69yebzJcStfvRp9o-48" style="edgeStyle=orthogonalEdgeStyle;shape=connector;rounded=1;orthogonalLoop=1;jettySize=auto;html=1;exitX=1;exitY=0.5;exitDx=0;exitDy=0;labelBackgroundColor=default;fontFamily=Helvetica;fontSize=21;fontColor=#007FFF;endArrow=classic;strokeColor=#D9D9D9;strokeWidth=2;elbow=vertical;" parent="1" source="DcDH69yebzJcStfvRp9o-49" target="DcDH69yebzJcStfvRp9o-32" edge="1">
          <mxGeometry relative="1" as="geometry">
            <mxPoint x="1726" y="2740" as="targetPoint" />
          </mxGeometry>
        </mxCell>
        <mxCell id="DcDH69yebzJcStfvRp9o-49" value="&lt;font color=&quot;#007fff&quot;&gt;&lt;span style=&quot;font-size: 14px&quot;&gt;&lt;b&gt;Hadoop&lt;/b&gt;&lt;/span&gt;&lt;/font&gt;" style="whiteSpace=wrap;html=1;fillColor=#EAF3FF;strokeColor=#8DB9FF;rounded=1;strokeWidth=4;" parent="1" vertex="1">
          <mxGeometry x="1612" y="2814" width="120" height="60" as="geometry" />
        </mxCell>
        <mxCell id="DcDH69yebzJcStfvRp9o-50" value="&lt;font style=&quot;font-size: 12px&quot; color=&quot;#007fff&quot;&gt;描述&lt;/font&gt;" style="text;html=1;strokeColor=none;fillColor=none;align=left;verticalAlign=middle;whiteSpace=wrap;rounded=0;fontFamily=Comic Sans MS;fontSize=20;fontColor=#000000;" parent="1" vertex="1">
          <mxGeometry x="1196.5" y="2649" width="209" height="48" as="geometry" />
        </mxCell>
        <mxCell id="DcDH69yebzJcStfvRp9o-51" value="描述" style="text;html=1;strokeColor=none;fillColor=none;align=left;verticalAlign=middle;whiteSpace=wrap;rounded=0;fontFamily=Comic Sans MS;fontSize=12;fontColor=#007FFF;" parent="1" vertex="1">
          <mxGeometry x="1680" y="2758" width="175" height="41" as="geometry" />
        </mxCell>
        <mxCell id="DcDH69yebzJcStfvRp9o-52" value="&lt;span style=&quot;text-align: left;&quot;&gt;描述&lt;/span&gt;" style="text;html=1;strokeColor=none;fillColor=none;align=center;verticalAlign=middle;whiteSpace=wrap;rounded=0;fontFamily=Comic Sans MS;fontSize=12;fontColor=#007FFF;" parent="1" vertex="1">
          <mxGeometry x="1557" y="2617" width="108" height="26" as="geometry" />
        </mxCell>
        <mxCell id="DcDH69yebzJcStfvRp9o-53" style="edgeStyle=orthogonalEdgeStyle;rounded=1;orthogonalLoop=1;jettySize=auto;html=1;exitX=0.75;exitY=1;exitDx=0;exitDy=0;entryX=0;entryY=0.5;entryDx=0;entryDy=0;fontFamily=Comic Sans MS;fontSize=12;fontColor=#007FFF;strokeColor=#9999FF;strokeWidth=2;" parent="1" source="DcDH69yebzJcStfvRp9o-54" target="DcDH69yebzJcStfvRp9o-49" edge="1">
          <mxGeometry relative="1" as="geometry" />
        </mxCell>
        <mxCell id="DcDH69yebzJcStfvRp9o-54" value="&lt;font color=&quot;#007fff&quot;&gt;&lt;span style=&quot;font-size: 14px;&quot;&gt;&lt;b&gt;NIO&lt;/b&gt;&lt;/span&gt;&lt;/font&gt;" style="whiteSpace=wrap;html=1;fillColor=#EAF3FF;strokeColor=#8DB9FF;rounded=1;strokeWidth=4;" parent="1" vertex="1">
          <mxGeometry x="1409" y="2675" width="120" height="60" as="geometry" />
        </mxCell>
        <mxCell id="DcDH69yebzJcStfvRp9o-55" value="&lt;font color=&quot;#007fff&quot;&gt;&lt;span style=&quot;font-size: 14px;&quot;&gt;&lt;b&gt;TIDB&lt;/b&gt;&lt;/span&gt;&lt;/font&gt;" style="whiteSpace=wrap;html=1;fillColor=#EAF3FF;strokeColor=#8DB9FF;rounded=1;strokeWidth=4;" parent="1" vertex="1">
          <mxGeometry x="1460" y="2418" width="120" height="60" as="geometry" />
        </mxCell>
        <mxCell id="DcDH69yebzJcStfvRp9o-56" value="&lt;font color=&quot;#007fff&quot;&gt;&lt;span style=&quot;font-size: 14px&quot;&gt;&lt;b&gt;OB&lt;/b&gt;&lt;/span&gt;&lt;/font&gt;" style="whiteSpace=wrap;html=1;fillColor=#EAF3FF;strokeColor=#8DB9FF;rounded=1;strokeWidth=4;" parent="1" vertex="1">
          <mxGeometry x="1618" y="2418" width="120" height="60" as="geometry" />
        </mxCell>
        <mxCell id="DcDH69yebzJcStfvRp9o-57" value="&lt;font&gt;&lt;span style=&quot;font-size: 14px&quot;&gt;&lt;b&gt;Spark&lt;/b&gt;&lt;/span&gt;&lt;/font&gt;" style="whiteSpace=wrap;html=1;fillColor=#EAF3FF;strokeColor=#20c997;rounded=1;strokeWidth=4;fontColor=#20c997;" parent="1" vertex="1">
          <mxGeometry x="1959" y="2414" width="120" height="60" as="geometry" />
        </mxCell>
        <mxCell id="DcDH69yebzJcStfvRp9o-58" value="&lt;font&gt;&lt;span style=&quot;font-size: 14px&quot;&gt;&lt;b&gt;Ck&lt;/b&gt;&lt;/span&gt;&lt;/font&gt;" style="whiteSpace=wrap;html=1;fillColor=#EAF3FF;strokeColor=#20c997;rounded=1;strokeWidth=4;fontColor=#20c997;" parent="1" vertex="1">
          <mxGeometry x="2099" y="2414" width="120" height="60" as="geometry" />
        </mxCell>
        <mxCell id="DcDH69yebzJcStfvRp9o-59" value="&lt;span style=&quot;color: rgb(0, 127, 255); font-family: &amp;quot;Comic Sans MS&amp;quot;; text-align: left;&quot;&gt;描述&lt;/span&gt;" style="text;html=1;strokeColor=none;fillColor=none;align=center;verticalAlign=middle;whiteSpace=wrap;rounded=0;fontFamily=Helvetica;fontSize=12;fontColor=default;" parent="1" vertex="1">
          <mxGeometry x="1723" y="2604" width="75" height="26" as="geometry" />
        </mxCell>
        <mxCell id="DcDH69yebzJcStfvRp9o-60" value="&lt;font&gt;&lt;span style=&quot;font-size: 14px&quot;&gt;&lt;b&gt;Presto&lt;/b&gt;&lt;/span&gt;&lt;/font&gt;" style="whiteSpace=wrap;html=1;fillColor=#EAF3FF;strokeColor=#20c997;rounded=1;strokeWidth=4;fontColor=#20c997;" parent="1" vertex="1">
          <mxGeometry x="2236" y="2414" width="120" height="60" as="geometry" />
        </mxCell>
        <mxCell id="DcDH69yebzJcStfvRp9o-61" value="&lt;span style=&quot;text-align: left;&quot;&gt;描述&lt;/span&gt;" style="text;html=1;strokeColor=none;fillColor=none;align=center;verticalAlign=middle;whiteSpace=wrap;rounded=0;fontFamily=Comic Sans MS;fontSize=12;fontColor=#007FFF;" parent="1" vertex="1">
          <mxGeometry x="1872" y="2785" width="41" height="15" as="geometry" />
        </mxCell>
        <mxCell id="DcDH69yebzJcStfvRp9o-62" value="&lt;span style=&quot;text-align: left;&quot;&gt;描述&lt;/span&gt;" style="text;html=1;strokeColor=none;fillColor=none;align=center;verticalAlign=middle;whiteSpace=wrap;rounded=0;fontFamily=Comic Sans MS;fontSize=12;fontColor=#007FFF;" parent="1" vertex="1">
          <mxGeometry x="1728.5" y="2681" width="89" height="20" as="geometry" />
        </mxCell>
        <mxCell id="DcDH69yebzJcStfvRp9o-63" value="&lt;span style=&quot;color: rgb(0, 127, 255);&quot;&gt;描述&lt;/span&gt;" style="text;html=1;strokeColor=#20c997;fillColor=none;align=center;verticalAlign=middle;whiteSpace=wrap;rounded=0;fontFamily=Helvetica;fontSize=12;fontColor=default;" parent="1" vertex="1">
          <mxGeometry x="1879" y="2624" width="143" height="29" as="geometry" />
        </mxCell>
        <mxCell id="DcDH69yebzJcStfvRp9o-64" value="&lt;span style=&quot;text-align: left;&quot;&gt;描述&lt;/span&gt;" style="text;html=1;strokeColor=none;fillColor=none;align=center;verticalAlign=middle;whiteSpace=wrap;rounded=0;fontFamily=Comic Sans MS;fontSize=12;fontColor=#007FFF;" parent="1" vertex="1">
          <mxGeometry x="1618" y="2767" width="41" height="15" as="geometry" />
        </mxCell>
        <mxCell id="DcDH69yebzJcStfvRp9o-65" value="Project Zone / Cloud Service Provider" style="sketch=0;points=[[0,0,0],[0.25,0,0],[0.5,0,0],[0.75,0,0],[1,0,0],[1,0.25,0],[1,0.5,0],[1,0.75,0],[1,1,0],[0.75,1,0],[0.5,1,0],[0.25,1,0],[0,1,0],[0,0.75,0],[0,0.5,0],[0,0.25,0]];rounded=1;absoluteArcSize=1;arcSize=2;html=1;strokeColor=#6c8ebf;shadow=0;dashed=0;fontSize=12;align=left;verticalAlign=top;spacing=10;spacingTop=-4;fillColor=#FFFFFF;" parent="1" vertex="1">
          <mxGeometry x="831" y="3165" width="530" height="490" as="geometry" />
        </mxCell>
        <mxCell id="DcDH69yebzJcStfvRp9o-66" value="Logical Grouping of Services / Instances" style="sketch=0;points=[[0,0,0],[0.25,0,0],[0.5,0,0],[0.75,0,0],[1,0,0],[1,0.25,0],[1,0.5,0],[1,0.75,0],[1,1,0],[0.75,1,0],[0.5,1,0],[0.25,1,0],[0,1,0],[0,0.75,0],[0,0.5,0],[0,0.25,0]];rounded=1;absoluteArcSize=1;arcSize=2;html=1;strokeColor=none;gradientColor=none;shadow=0;dashed=0;fontSize=12;fontColor=#9E9E9E;align=left;verticalAlign=top;spacing=10;spacingTop=-4;fillColor=#E3F2FD;" parent="DcDH69yebzJcStfvRp9o-65" vertex="1">
          <mxGeometry width="250" height="180" relative="1" as="geometry">
            <mxPoint x="10" y="50" as="offset" />
          </mxGeometry>
        </mxCell>
        <mxCell id="DcDH69yebzJcStfvRp9o-67" value="Zone" style="sketch=0;points=[[0,0,0],[0.25,0,0],[0.5,0,0],[0.75,0,0],[1,0,0],[1,0.25,0],[1,0.5,0],[1,0.75,0],[1,1,0],[0.75,1,0],[0.5,1,0],[0.25,1,0],[0,1,0],[0,0.75,0],[0,0.5,0],[0,0.25,0]];rounded=1;absoluteArcSize=1;arcSize=2;html=1;strokeColor=none;gradientColor=none;shadow=0;dashed=0;fontSize=12;fontColor=#9E9E9E;align=left;verticalAlign=top;spacing=10;spacingTop=-4;fillColor=#FFF3E0;" parent="DcDH69yebzJcStfvRp9o-66" vertex="1">
          <mxGeometry width="230" height="120" relative="1" as="geometry">
            <mxPoint x="10" y="50" as="offset" />
          </mxGeometry>
        </mxCell>
        <mxCell id="DcDH69yebzJcStfvRp9o-68" value="SubNetwork" style="sketch=0;points=[[0,0,0],[0.25,0,0],[0.5,0,0],[0.75,0,0],[1,0,0],[1,0.25,0],[1,0.5,0],[1,0.75,0],[1,1,0],[0.75,1,0],[0.5,1,0],[0.25,1,0],[0,1,0],[0,0.75,0],[0,0.5,0],[0,0.25,0]];rounded=1;absoluteArcSize=1;arcSize=2;html=1;strokeColor=none;gradientColor=none;shadow=0;dashed=0;fontSize=12;fontColor=#9E9E9E;align=left;verticalAlign=top;spacing=10;spacingTop=-4;fillColor=#EDE7F6;" parent="DcDH69yebzJcStfvRp9o-67" vertex="1">
          <mxGeometry width="210" height="60" relative="1" as="geometry">
            <mxPoint x="10" y="50" as="offset" />
          </mxGeometry>
        </mxCell>
        <mxCell id="DcDH69yebzJcStfvRp9o-69" value="Kubernetes cluster" style="sketch=0;points=[[0,0,0],[0.25,0,0],[0.5,0,0],[0.75,0,0],[1,0,0],[1,0.25,0],[1,0.5,0],[1,0.75,0],[1,1,0],[0.75,1,0],[0.5,1,0],[0.25,1,0],[0,1,0],[0,0.75,0],[0,0.5,0],[0,0.25,0]];rounded=1;absoluteArcSize=1;arcSize=2;html=1;strokeColor=none;gradientColor=none;shadow=0;dashed=0;fontSize=12;fontColor=#9E9E9E;align=left;verticalAlign=top;spacing=10;spacingTop=-4;fillColor=#FCE4EC;" parent="DcDH69yebzJcStfvRp9o-65" vertex="1">
          <mxGeometry width="250" height="120" relative="1" as="geometry">
            <mxPoint x="10" y="240" as="offset" />
          </mxGeometry>
        </mxCell>
        <mxCell id="DcDH69yebzJcStfvRp9o-70" value="pod" style="sketch=0;points=[[0,0,0],[0.25,0,0],[0.5,0,0],[0.75,0,0],[1,0,0],[1,0.25,0],[1,0.5,0],[1,0.75,0],[1,1,0],[0.75,1,0],[0.5,1,0],[0.25,1,0],[0,1,0],[0,0.75,0],[0,0.5,0],[0,0.25,0]];rounded=1;absoluteArcSize=1;arcSize=2;html=1;strokeColor=none;gradientColor=none;shadow=0;dashed=0;fontSize=12;fontColor=#9E9E9E;align=left;verticalAlign=top;spacing=10;spacingTop=-4;fillColor=#E8F5E9;" parent="DcDH69yebzJcStfvRp9o-69" vertex="1">
          <mxGeometry width="210" height="60" relative="1" as="geometry">
            <mxPoint x="10" y="50" as="offset" />
          </mxGeometry>
        </mxCell>
        <mxCell id="DcDH69yebzJcStfvRp9o-71" value="Account" style="sketch=0;points=[[0,0,0],[0.25,0,0],[0.5,0,0],[0.75,0,0],[1,0,0],[1,0.25,0],[1,0.5,0],[1,0.75,0],[1,1,0],[0.75,1,0],[0.5,1,0],[0.25,1,0],[0,1,0],[0,0.75,0],[0,0.5,0],[0,0.25,0]];rounded=1;absoluteArcSize=1;arcSize=2;html=1;strokeColor=none;gradientColor=none;shadow=0;dashed=0;fontSize=12;fontColor=#9E9E9E;align=left;verticalAlign=top;spacing=10;spacingTop=-4;fillColor=#E8EAF6;" parent="DcDH69yebzJcStfvRp9o-65" vertex="1">
          <mxGeometry width="250" height="60" relative="1" as="geometry">
            <mxPoint x="10" y="370" as="offset" />
          </mxGeometry>
        </mxCell>
        <mxCell id="DcDH69yebzJcStfvRp9o-72" value="&lt;font color=&quot;#ffffff&quot; size=&quot;1&quot;&gt;&lt;b&gt;&lt;i style=&quot;font-size: 14px&quot;&gt;TaskManager&lt;/i&gt;&lt;/b&gt;&lt;/font&gt;" style="sketch=0;points=[[0,0,0],[0.25,0,0],[0.5,0,0],[0.75,0,0],[1,0,0],[1,0.25,0],[1,0.5,0],[1,0.75,0],[1,1,0],[0.75,1,0],[0.5,1,0],[0.25,1,0],[0,1,0],[0,0.75,0],[0,0.5,0],[0,0.25,0]];rounded=1;absoluteArcSize=1;arcSize=2;html=1;strokeColor=none;gradientColor=none;shadow=0;dashed=0;fontSize=12;fontColor=#9E9E9E;align=left;verticalAlign=top;spacing=10;spacingTop=-4;fillColor=#BED3FE;" parent="DcDH69yebzJcStfvRp9o-65" vertex="1">
          <mxGeometry width="250" height="310" relative="1" as="geometry">
            <mxPoint x="270" y="50" as="offset" />
          </mxGeometry>
        </mxCell>
        <mxCell id="DcDH69yebzJcStfvRp9o-73" value="&lt;font color=&quot;#ffffff&quot;&gt;Zone&lt;/font&gt;" style="sketch=0;points=[[0,0,0],[0.25,0,0],[0.5,0,0],[0.75,0,0],[1,0,0],[1,0.25,0],[1,0.5,0],[1,0.75,0],[1,1,0],[0.75,1,0],[0.5,1,0],[0.25,1,0],[0,1,0],[0,0.75,0],[0,0.5,0],[0,0.25,0]];rounded=1;absoluteArcSize=1;arcSize=2;html=1;strokeColor=none;gradientColor=none;shadow=0;dashed=0;fontSize=12;fontColor=#9E9E9E;align=left;verticalAlign=top;spacing=10;spacingTop=-4;fillColor=#6194FA;" parent="DcDH69yebzJcStfvRp9o-72" vertex="1">
          <mxGeometry width="230" height="250" relative="1" as="geometry">
            <mxPoint x="10" y="50" as="offset" />
          </mxGeometry>
        </mxCell>
        <mxCell id="DcDH69yebzJcStfvRp9o-74" value="&lt;font color=&quot;#ffffff&quot;&gt;Firewall&lt;/font&gt;" style="sketch=0;points=[[0,0,0],[0.25,0,0],[0.5,0,0],[0.75,0,0],[1,0,0],[1,0.25,0],[1,0.5,0],[1,0.75,0],[1,1,0],[0.75,1,0],[0.5,1,0],[0.25,1,0],[0,1,0],[0,0.75,0],[0,0.5,0],[0,0.25,0]];rounded=1;absoluteArcSize=1;arcSize=2;html=1;strokeColor=none;gradientColor=none;shadow=0;dashed=0;fontSize=12;fontColor=#9E9E9E;align=left;verticalAlign=top;spacing=10;spacingTop=-4;fillColor=#1D5BD6;" parent="DcDH69yebzJcStfvRp9o-73" vertex="1">
          <mxGeometry width="210" height="190" relative="1" as="geometry">
            <mxPoint x="10" y="50" as="offset" />
          </mxGeometry>
        </mxCell>
        <mxCell id="DcDH69yebzJcStfvRp9o-75" value="Instance Group" style="sketch=0;points=[[0,0,0],[0.25,0,0],[0.5,0,0],[0.75,0,0],[1,0,0],[1,0.25,0],[1,0.5,0],[1,0.75,0],[1,1,0],[0.75,1,0],[0.5,1,0],[0.25,1,0],[0,1,0],[0,0.75,0],[0,0.5,0],[0,0.25,0]];rounded=1;absoluteArcSize=1;arcSize=2;html=1;strokeColor=none;gradientColor=none;shadow=0;dashed=0;fontSize=12;fontColor=#9E9E9E;align=left;verticalAlign=top;spacing=10;spacingTop=-4;fillColor=#FFFFFF;" parent="DcDH69yebzJcStfvRp9o-74" vertex="1">
          <mxGeometry width="190" height="60" relative="1" as="geometry">
            <mxPoint x="10" y="50" as="offset" />
          </mxGeometry>
        </mxCell>
        <mxCell id="DcDH69yebzJcStfvRp9o-76" value="Replica Pool" style="sketch=0;points=[[0,0,0],[0.25,0,0],[0.5,0,0],[0.75,0,0],[1,0,0],[1,0.25,0],[1,0.5,0],[1,0.75,0],[1,1,0],[0.75,1,0],[0.5,1,0],[0.25,1,0],[0,1,0],[0,0.75,0],[0,0.5,0],[0,0.25,0]];rounded=1;absoluteArcSize=1;arcSize=2;html=1;strokeColor=none;gradientColor=none;shadow=0;dashed=0;fontSize=12;fontColor=#9E9E9E;align=left;verticalAlign=top;spacing=10;spacingTop=-4;fillColor=#FFFFFF;" parent="DcDH69yebzJcStfvRp9o-74" vertex="1">
          <mxGeometry width="190" height="60" relative="1" as="geometry">
            <mxPoint x="10" y="120" as="offset" />
          </mxGeometry>
        </mxCell>
        <mxCell id="DcDH69yebzJcStfvRp9o-77" value="Optional Component" style="rounded=1;absoluteArcSize=1;arcSize=2;html=1;strokeColor=none;gradientColor=none;shadow=0;dashed=1;strokeColor=#4284F3;fontSize=12;fontColor=#9E9E9E;align=left;verticalAlign=top;spacing=10;spacingTop=-4;fillColor=none;dashPattern=1 2;strokeWidth=2;sketch=0;" parent="DcDH69yebzJcStfvRp9o-65" vertex="1">
          <mxGeometry width="250" height="60" relative="1" as="geometry">
            <mxPoint x="270" y="370" as="offset" />
          </mxGeometry>
        </mxCell>
        <mxCell id="DcDH69yebzJcStfvRp9o-78" value="" style="rounded=1;whiteSpace=wrap;html=1;shadow=0;glass=0;sketch=0;fontSize=17;fontColor=#FFFFFF;strokeColor=#222138;strokeWidth=0;fillColor=#FFFFFF;dashed=1;arcSize=6;" parent="1" vertex="1">
          <mxGeometry x="1711" y="3253" width="438" height="217" as="geometry" />
        </mxCell>
        <mxCell id="DcDH69yebzJcStfvRp9o-79" value="A类" style="rounded=1;whiteSpace=wrap;html=1;shadow=1;glass=0;dashed=1;sketch=0;fontSize=17;fontColor=#FFFFFF;strokeColor=#0B1922;strokeWidth=0;fillColor=#15aabf;fontStyle=2" parent="1" vertex="1">
          <mxGeometry x="1747" y="3274" width="161" height="70" as="geometry" />
        </mxCell>
        <mxCell id="DcDH69yebzJcStfvRp9o-80" value="B类" style="rounded=1;whiteSpace=wrap;html=1;shadow=1;glass=0;dashed=1;sketch=0;fontSize=17;fontColor=#FFFFFF;strokeColor=#0B1922;strokeWidth=0;fillColor=#228be6;fontStyle=2" parent="1" vertex="1">
          <mxGeometry x="1947" y="3274" width="161" height="70" as="geometry" />
        </mxCell>
        <mxCell id="DcDH69yebzJcStfvRp9o-81" value="C类" style="rounded=1;whiteSpace=wrap;html=1;shadow=1;glass=0;dashed=1;sketch=0;fontSize=17;fontColor=#FFFFFF;strokeColor=#0B1922;strokeWidth=0;fillColor=#4c6ef5;fontStyle=2" parent="1" vertex="1">
          <mxGeometry x="1747" y="3368" width="161" height="70" as="geometry" />
        </mxCell>
        <mxCell id="DcDH69yebzJcStfvRp9o-82" value="D类" style="rounded=1;whiteSpace=wrap;html=1;shadow=1;glass=0;dashed=1;sketch=0;fontSize=17;fontColor=#FFFFFF;strokeColor=#0B1922;strokeWidth=0;fillColor=#7950f2;fontStyle=2" parent="1" vertex="1">
          <mxGeometry x="1947" y="3368" width="161" height="70" as="geometry" />
        </mxCell>
        <mxCell id="pi8aIjBnN-zdrB3sN-6p-6" value="场景端" style="shape=umlLifeline;perimeter=lifelinePerimeter;whiteSpace=wrap;html=1;container=1;collapsible=0;recursiveResize=0;outlineConnect=0;fontSize=18;fillColor=#0ca678;strokeColor=#0CA678;fontColor=#ffffff;rounded=1;shadow=0;comic=0;glass=0;strokeWidth=2;gradientColor=none;" parent="1" vertex="1">
          <mxGeometry x="967" y="3796" width="100" height="727" as="geometry" />
        </mxCell>
        <mxCell id="pi8aIjBnN-zdrB3sN-6p-8" value="云端" style="shape=umlLifeline;perimeter=lifelinePerimeter;whiteSpace=wrap;html=1;container=1;collapsible=0;recursiveResize=0;outlineConnect=0;fontSize=18;fillColor=#1098ad;strokeColor=#1098AD;fontColor=#ffffff;rounded=1;shadow=0;comic=0;glass=0;strokeWidth=2;" parent="1" vertex="1">
          <mxGeometry x="1145" y="3799" width="100" height="733" as="geometry" />
        </mxCell>
        <mxCell id="pi8aIjBnN-zdrB3sN-6p-9" value="" style="html=1;points=[];perimeter=orthogonalPerimeter;rounded=1;shadow=0;glass=0;comic=0;fontFamily=Helvetica;fontSize=18;fontColor=#FFFFFF;strokeColor=#DDDDDD;strokeWidth=2;fillColor=#FFFFFF;" parent="pi8aIjBnN-zdrB3sN-6p-8" vertex="1">
          <mxGeometry x="44" y="177" width="10" height="40" as="geometry" />
        </mxCell>
        <mxCell id="pi8aIjBnN-zdrB3sN-6p-10" value="&lt;font color=&quot;#808080&quot;&gt;2.&lt;/font&gt;" style="edgeStyle=orthogonalEdgeStyle;html=1;align=left;spacingLeft=2;endArrow=block;rounded=0;entryX=1;entryY=0;fontFamily=Helvetica;fontSize=16;fontColor=#000000;strokeColor=#DDDDDD;strokeWidth=2;" parent="pi8aIjBnN-zdrB3sN-6p-8" target="pi8aIjBnN-zdrB3sN-6p-9" edge="1">
          <mxGeometry relative="1" as="geometry">
            <mxPoint x="45" y="159" as="sourcePoint" />
            <Array as="points">
              <mxPoint x="75" y="159" />
            </Array>
          </mxGeometry>
        </mxCell>
        <mxCell id="pi8aIjBnN-zdrB3sN-6p-11" value="服务中台" style="shape=umlLifeline;perimeter=lifelinePerimeter;whiteSpace=wrap;html=1;container=1;collapsible=0;recursiveResize=0;outlineConnect=0;fontSize=18;fillColor=#1c7ed6;strokeColor=#1C7ED6;fontColor=#ffffff;rounded=1;shadow=0;comic=0;glass=0;strokeWidth=2;" parent="1" vertex="1">
          <mxGeometry x="1304" y="3799" width="100" height="737" as="geometry" />
        </mxCell>
        <mxCell id="pi8aIjBnN-zdrB3sN-6p-12" value="策略系统" style="shape=umlLifeline;perimeter=lifelinePerimeter;whiteSpace=wrap;html=1;container=1;collapsible=0;recursiveResize=0;outlineConnect=0;fontSize=18;fillColor=#4263eb;strokeColor=#4263EB;fontColor=#ffffff;rounded=1;shadow=0;comic=0;glass=0;strokeWidth=2;" parent="1" vertex="1">
          <mxGeometry x="1479" y="3799" width="100" height="743" as="geometry" />
        </mxCell>
        <mxCell id="pi8aIjBnN-zdrB3sN-6p-13" value="服务库" style="shape=umlLifeline;perimeter=lifelinePerimeter;whiteSpace=wrap;html=1;container=1;collapsible=0;recursiveResize=0;outlineConnect=0;fontSize=18;fillColor=#7048e8;strokeColor=#7048e8;fontColor=#ffffff;rounded=1;shadow=0;comic=0;glass=0;strokeWidth=2;" parent="1" vertex="1">
          <mxGeometry x="1658" y="3799" width="100" height="744" as="geometry" />
        </mxCell>
        <mxCell id="pi8aIjBnN-zdrB3sN-6p-14" value="算法规则引擎" style="shape=umlLifeline;perimeter=lifelinePerimeter;whiteSpace=wrap;html=1;container=1;collapsible=0;recursiveResize=0;outlineConnect=0;fontSize=18;fillColor=#ae3ec9;strokeColor=#ae3ec9;fontColor=#ffffff;rounded=1;shadow=0;comic=0;glass=0;strokeWidth=2;" parent="1" vertex="1">
          <mxGeometry x="1833" y="3799" width="100" height="751" as="geometry" />
        </mxCell>
        <mxCell id="pi8aIjBnN-zdrB3sN-6p-15" value="数据接口" style="shape=umlLifeline;perimeter=lifelinePerimeter;whiteSpace=wrap;html=1;container=1;collapsible=0;recursiveResize=0;outlineConnect=0;fontSize=18;fillColor=#37b24d;strokeColor=#37b24d;fontColor=#ffffff;rounded=1;shadow=0;comic=0;glass=0;strokeWidth=2;" parent="1" vertex="1">
          <mxGeometry x="2004" y="3799" width="100" height="757" as="geometry" />
        </mxCell>
        <mxCell id="pi8aIjBnN-zdrB3sN-6p-16" value="&lt;font color=&quot;#999999&quot;&gt;1.请求服务&lt;/font&gt;" style="html=1;verticalAlign=bottom;startArrow=oval;startFill=1;endArrow=block;startSize=8;rounded=0;fontFamily=Helvetica;fontSize=16;fontColor=#000000;strokeColor=#DDDDDD;strokeWidth=2;" parent="1" source="pi8aIjBnN-zdrB3sN-6p-6" target="pi8aIjBnN-zdrB3sN-6p-8" edge="1">
          <mxGeometry width="60" relative="1" as="geometry">
            <mxPoint x="1177" y="3946" as="sourcePoint" />
            <mxPoint x="1195" y="3949" as="targetPoint" />
            <Array as="points">
              <mxPoint x="1107" y="3921" />
            </Array>
          </mxGeometry>
        </mxCell>
        <mxCell id="pi8aIjBnN-zdrB3sN-6p-17" value="&lt;font color=&quot;#808080&quot;&gt;3.请求服务&lt;/font&gt;" style="html=1;verticalAlign=bottom;startArrow=oval;startFill=1;endArrow=block;startSize=8;rounded=0;fontFamily=Helvetica;fontSize=14;fontColor=#000000;strokeColor=#DDDDDD;strokeWidth=2;" parent="1" source="pi8aIjBnN-zdrB3sN-6p-8" target="pi8aIjBnN-zdrB3sN-6p-11" edge="1">
          <mxGeometry x="-0.2152" y="17" width="60" relative="1" as="geometry">
            <mxPoint x="1177" y="4146" as="sourcePoint" />
            <mxPoint x="1237" y="4146" as="targetPoint" />
            <Array as="points">
              <mxPoint x="1208" y="4097" />
              <mxPoint x="1237" y="4097" />
            </Array>
            <mxPoint as="offset" />
          </mxGeometry>
        </mxCell>
        <mxCell id="pi8aIjBnN-zdrB3sN-6p-18" value="&lt;font color=&quot;#808080&quot;&gt;4.获取用户&lt;/font&gt;" style="html=1;verticalAlign=bottom;startArrow=oval;startFill=1;endArrow=block;startSize=8;rounded=0;fontFamily=Helvetica;fontSize=14;fontColor=#000000;strokeColor=#DDDDDD;strokeWidth=2;" parent="1" source="pi8aIjBnN-zdrB3sN-6p-11" target="pi8aIjBnN-zdrB3sN-6p-12" edge="1">
          <mxGeometry x="0.1149" y="48" width="60" relative="1" as="geometry">
            <mxPoint x="1357" y="4180" as="sourcePoint" />
            <mxPoint x="1516" y="4180" as="targetPoint" />
            <Array as="points">
              <mxPoint x="1445" y="4177" />
            </Array>
            <mxPoint as="offset" />
          </mxGeometry>
        </mxCell>
        <mxCell id="pi8aIjBnN-zdrB3sN-6p-19" value="&lt;font color=&quot;#808080&quot;&gt;常规召回&lt;/font&gt;" style="html=1;verticalAlign=bottom;startArrow=oval;startFill=1;endArrow=block;startSize=8;rounded=0;fontFamily=Helvetica;fontSize=14;fontColor=#000000;strokeColor=#DDDDDD;strokeWidth=2;" parent="1" source="pi8aIjBnN-zdrB3sN-6p-11" target="pi8aIjBnN-zdrB3sN-6p-13" edge="1">
          <mxGeometry width="60" relative="1" as="geometry">
            <mxPoint x="1355" y="4321" as="sourcePoint" />
            <mxPoint x="1237" y="4321" as="targetPoint" />
            <Array as="points">
              <mxPoint x="1475" y="4231" />
            </Array>
          </mxGeometry>
        </mxCell>
        <mxCell id="pi8aIjBnN-zdrB3sN-6p-20" value="&lt;font color=&quot;#808080&quot;&gt;粗排：算法引擎召回&lt;/font&gt;" style="html=1;verticalAlign=bottom;startArrow=oval;startFill=1;endArrow=block;startSize=8;rounded=0;fontFamily=Helvetica;fontSize=14;fontColor=#000000;strokeColor=#DDDDDD;strokeWidth=2;" parent="1" source="pi8aIjBnN-zdrB3sN-6p-11" target="pi8aIjBnN-zdrB3sN-6p-14" edge="1">
          <mxGeometry width="60" relative="1" as="geometry">
            <mxPoint x="1363.5" y="4292" as="sourcePoint" />
            <mxPoint x="1717.5" y="4292" as="targetPoint" />
            <Array as="points">
              <mxPoint x="1469" y="4277" />
            </Array>
          </mxGeometry>
        </mxCell>
        <mxCell id="pi8aIjBnN-zdrB3sN-6p-21" value="&lt;font color=&quot;#808080&quot;&gt;精排：规则，权重，topN&lt;/font&gt;" style="html=1;verticalAlign=bottom;startArrow=oval;startFill=1;endArrow=block;startSize=8;rounded=0;fontFamily=Helvetica;fontSize=14;fontColor=#000000;strokeColor=#DDDDDD;strokeWidth=2;" parent="1" source="pi8aIjBnN-zdrB3sN-6p-11" target="pi8aIjBnN-zdrB3sN-6p-13" edge="1">
          <mxGeometry width="60" relative="1" as="geometry">
            <mxPoint x="1363.5" y="4398" as="sourcePoint" />
            <mxPoint x="1717.5" y="4398" as="targetPoint" />
            <Array as="points">
              <mxPoint x="1481" y="4329" />
            </Array>
          </mxGeometry>
        </mxCell>
        <mxCell id="pi8aIjBnN-zdrB3sN-6p-22" value="&lt;font color=&quot;#808080&quot;&gt;从数据接口获取数据如果需要)&lt;/font&gt;" style="html=1;verticalAlign=bottom;startArrow=oval;startFill=1;endArrow=block;startSize=8;rounded=0;fontFamily=Helvetica;fontSize=14;fontColor=#000000;strokeColor=#DDDDDD;strokeWidth=2;" parent="1" source="pi8aIjBnN-zdrB3sN-6p-11" target="pi8aIjBnN-zdrB3sN-6p-15" edge="1">
          <mxGeometry width="60" relative="1" as="geometry">
            <mxPoint x="1363.5" y="4481" as="sourcePoint" />
            <mxPoint x="1717.5" y="4481" as="targetPoint" />
            <Array as="points">
              <mxPoint x="1489" y="4372" />
            </Array>
          </mxGeometry>
        </mxCell>
        <mxCell id="pi8aIjBnN-zdrB3sN-6p-23" value="&lt;font color=&quot;#808080&quot;&gt;返回数据接口返回&lt;/font&gt;" style="html=1;verticalAlign=bottom;startArrow=oval;startFill=1;endArrow=block;startSize=8;rounded=0;fontFamily=Helvetica;fontSize=14;fontColor=#000000;dashed=1;strokeColor=#DDDDDD;strokeWidth=2;" parent="1" source="pi8aIjBnN-zdrB3sN-6p-15" target="pi8aIjBnN-zdrB3sN-6p-11" edge="1">
          <mxGeometry width="60" relative="1" as="geometry">
            <mxPoint x="1810" y="4421" as="sourcePoint" />
            <mxPoint x="1870" y="4421" as="targetPoint" />
            <Array as="points">
              <mxPoint x="1714" y="4421" />
            </Array>
          </mxGeometry>
        </mxCell>
        <mxCell id="pi8aIjBnN-zdrB3sN-6p-24" value="&lt;font color=&quot;#808080&quot;&gt;返回服务&lt;/font&gt;" style="html=1;verticalAlign=bottom;startArrow=oval;startFill=1;endArrow=block;startSize=8;rounded=0;dashed=1;fontFamily=Helvetica;fontSize=14;fontColor=#000000;strokeColor=#DDDDDD;strokeWidth=2;" parent="1" source="pi8aIjBnN-zdrB3sN-6p-11" target="pi8aIjBnN-zdrB3sN-6p-6" edge="1">
          <mxGeometry x="0.2024" y="-53" width="60" relative="1" as="geometry">
            <mxPoint x="1150" y="4421" as="sourcePoint" />
            <mxPoint x="1210" y="4421" as="targetPoint" />
            <Array as="points">
              <mxPoint x="1227" y="4475" />
            </Array>
            <mxPoint as="offset" />
          </mxGeometry>
        </mxCell>
        <mxCell id="pi8aIjBnN-zdrB3sN-6p-28" value="" style="rounded=1;whiteSpace=wrap;html=1;fillColor=#CFD4E8;strokeWidth=0;arcSize=6;" parent="1" vertex="1">
          <mxGeometry x="96" y="4074" width="204" height="304" as="geometry" />
        </mxCell>
        <mxCell id="pi8aIjBnN-zdrB3sN-6p-29" value="&lt;i&gt;&lt;font color=&quot;#ffffff&quot; style=&quot;font-size: 21px;&quot;&gt;Flink&lt;/font&gt;&lt;/i&gt;" style="rounded=1;whiteSpace=wrap;html=1;fillColor=#5374BF;strokeColor=#F0F5FF;strokeWidth=2;" parent="1" vertex="1">
          <mxGeometry x="122" y="4111" width="156" height="66" as="geometry" />
        </mxCell>
        <mxCell id="pi8aIjBnN-zdrB3sN-6p-30" value="" style="rounded=1;whiteSpace=wrap;html=1;fillColor=#5374BF;strokeWidth=2;strokeColor=#F0F5FF;" parent="1" vertex="1">
          <mxGeometry x="120" y="4205" width="156" height="66" as="geometry" />
        </mxCell>
        <mxCell id="pi8aIjBnN-zdrB3sN-6p-31" value="" style="rounded=1;whiteSpace=wrap;html=1;fillColor=#5374BF;strokeWidth=2;strokeColor=#F0F5FF;" parent="1" vertex="1">
          <mxGeometry x="121" y="4293" width="156" height="66" as="geometry" />
        </mxCell>
        <mxCell id="pi8aIjBnN-zdrB3sN-6p-32" value="" style="rounded=1;whiteSpace=wrap;html=1;fillColor=#D8EBCF;strokeWidth=0;arcSize=5;" parent="1" vertex="1">
          <mxGeometry x="332" y="4074" width="204" height="304" as="geometry" />
        </mxCell>
        <mxCell id="pi8aIjBnN-zdrB3sN-6p-33" value="&lt;i&gt;&lt;font color=&quot;#ffffff&quot; style=&quot;font-size: 20px;&quot;&gt;Python&lt;/font&gt;&lt;/i&gt;" style="rounded=1;whiteSpace=wrap;html=1;fillColor=#87C851;strokeColor=#F0F5FF;strokeWidth=2;" parent="1" vertex="1">
          <mxGeometry x="358" y="4109" width="156" height="66" as="geometry" />
        </mxCell>
        <mxCell id="pi8aIjBnN-zdrB3sN-6p-34" value="" style="rounded=1;whiteSpace=wrap;html=1;fillColor=#87C851;strokeWidth=2;strokeColor=#F0F5FF;" parent="1" vertex="1">
          <mxGeometry x="356" y="4203" width="156" height="66" as="geometry" />
        </mxCell>
        <mxCell id="pi8aIjBnN-zdrB3sN-6p-35" value="" style="rounded=1;whiteSpace=wrap;html=1;fillColor=#87C851;strokeWidth=2;strokeColor=#F0F5FF;" parent="1" vertex="1">
          <mxGeometry x="357" y="4291" width="156" height="66" as="geometry" />
        </mxCell>
        <mxCell id="pi8aIjBnN-zdrB3sN-6p-36" value="" style="rounded=1;whiteSpace=wrap;html=1;fillColor=#e5dbff;strokeWidth=0;arcSize=6;imageWidth=24;" parent="1" vertex="1">
          <mxGeometry x="564" y="4074" width="204" height="304" as="geometry" />
        </mxCell>
        <mxCell id="pi8aIjBnN-zdrB3sN-6p-37" value="&lt;b&gt;&lt;font style=&quot;font-size: 18px;&quot;&gt;&lt;i&gt;ZGC&lt;/i&gt;&lt;/font&gt;&lt;/b&gt;" style="rounded=1;whiteSpace=wrap;html=1;fillColor=#b197fc;strokeColor=#F0F5FF;strokeWidth=2;fontColor=#FFFFFF;" parent="1" vertex="1">
          <mxGeometry x="590" y="4102" width="156" height="66" as="geometry" />
        </mxCell>
        <mxCell id="pi8aIjBnN-zdrB3sN-6p-38" value="&lt;font style=&quot;font-size: 20px;&quot;&gt;&lt;i&gt;G1&lt;/i&gt;&lt;/font&gt;" style="rounded=1;whiteSpace=wrap;html=1;fillColor=#b197fc;strokeWidth=2;strokeColor=#F0F5FF;fontColor=#FFFFFF;" parent="1" vertex="1">
          <mxGeometry x="588" y="4196" width="156" height="66" as="geometry" />
        </mxCell>
        <mxCell id="pi8aIjBnN-zdrB3sN-6p-39" value="" style="rounded=1;whiteSpace=wrap;html=1;fillColor=#b197fc;strokeWidth=2;strokeColor=#F0F5FF;" parent="1" vertex="1">
          <mxGeometry x="589" y="4284" width="156" height="66" as="geometry" />
        </mxCell>
        <mxCell id="pi8aIjBnN-zdrB3sN-6p-41" value="" style="rounded=1;whiteSpace=wrap;html=1;fillColor=#c5f6fa;strokeWidth=0;arcSize=6;" parent="1" vertex="1">
          <mxGeometry x="785" y="4074" width="204" height="304" as="geometry" />
        </mxCell>
        <mxCell id="pi8aIjBnN-zdrB3sN-6p-42" value="&lt;font style=&quot;font-size: 20px;&quot; color=&quot;#ffffff&quot;&gt;&lt;i&gt;SQL&lt;/i&gt;&lt;/font&gt;" style="rounded=1;whiteSpace=wrap;html=1;fillColor=#1098ad;strokeColor=#F0F5FF;strokeWidth=2;" parent="1" vertex="1">
          <mxGeometry x="811" y="4102" width="156" height="66" as="geometry" />
        </mxCell>
        <mxCell id="pi8aIjBnN-zdrB3sN-6p-43" value="" style="rounded=1;whiteSpace=wrap;html=1;fillColor=#1098ad;strokeWidth=2;strokeColor=#F0F5FF;" parent="1" vertex="1">
          <mxGeometry x="809" y="4196" width="156" height="66" as="geometry" />
        </mxCell>
        <mxCell id="pi8aIjBnN-zdrB3sN-6p-44" value="" style="rounded=1;whiteSpace=wrap;html=1;fillColor=#1098ad;strokeWidth=2;strokeColor=#F0F5FF;" parent="1" vertex="1">
          <mxGeometry x="810" y="4284" width="156" height="66" as="geometry" />
        </mxCell>
        <mxCell id="pi8aIjBnN-zdrB3sN-6p-45" value="&lt;font color=&quot;#000000&quot;&gt;https://github.com/FriendlyUser/LatexDiagrams&lt;/font&gt;" style="rounded=1;whiteSpace=wrap;html=1;strokeColor=#FFFFFF;strokeWidth=0;fontSize=20;fontColor=#FFFFFF;fillColor=#c5f6fa;fontStyle=2" parent="1" vertex="1">
          <mxGeometry x="97" y="4012" width="889" height="41" as="geometry" />
        </mxCell>
        <mxCell id="pi8aIjBnN-zdrB3sN-6p-46" value="&lt;font color=&quot;#808080&quot;&gt;arcSize=6&lt;/font&gt;" style="text;html=1;strokeColor=none;fillColor=none;align=center;verticalAlign=middle;whiteSpace=wrap;rounded=0;strokeWidth=0;fontSize=20;fontColor=#FFFFFF;" parent="1" vertex="1">
          <mxGeometry x="131" y="4079" width="137" height="28" as="geometry" />
        </mxCell>
      </root>
    </mxGraphModel>
  </diagram>
</mxfile>
